<svg width="36" height="36" viewBox="0 0 36 36" fill="none" xmlns="http://www.w3.org/2000/svg">
<g clip-path="url(#clip0_496_292)">
<rect x="-0.000492096" y="0.00195312" width="36" height="36" rx="8" fill="url(#paint0_linear_496_292)"/>
<g clip-path="url(#clip1_496_292)">
<path d="M23.6837 6.00195C24.6503 6.0019 25.5804 6.37121 26.2836 7.03431C26.9869 7.69742 27.4102 8.60419 27.4669 9.56911L27.4732 9.79143V22.423H28.4206C29.2378 22.423 29.9111 23.0445 29.9919 23.8403L29.9995 24.002V26.2125C29.9996 27.1791 29.6303 28.1091 28.9671 28.8124C28.304 29.5156 27.3973 29.9389 26.4323 29.9956L26.21 30.002H13.5785C12.6119 30.002 11.6818 29.6327 10.9785 28.9696C10.2753 28.3065 9.852 27.3997 9.7953 26.4348L9.78898 26.2125V13.5809H7.57846C7.18756 13.5811 6.8105 13.4363 6.52022 13.1744C6.22995 12.9126 6.04711 12.5525 6.00709 12.1636L5.99951 12.002V9.79143C5.99945 8.82484 6.36876 7.89478 7.03187 7.19152C7.69497 6.48826 8.60175 6.06498 9.56667 6.00827L9.78898 6.00195H23.6837ZM23.6837 8.52827H12.3153V26.2125C12.3153 26.5475 12.4484 26.8688 12.6853 27.1057C12.9222 27.3426 13.2434 27.4756 13.5785 27.4756C13.9135 27.4756 14.2348 27.3426 14.4716 27.1057C14.7085 26.8688 14.8416 26.5475 14.8416 26.2125V24.002C14.8416 23.1304 15.549 22.423 16.4206 22.423H24.9469V9.79143C24.9469 9.45642 24.8138 9.13513 24.5769 8.89824C24.34 8.66135 24.0187 8.52827 23.6837 8.52827ZM27.4732 24.9493H17.3679V26.2125C17.3679 26.6546 17.2921 27.0803 17.1532 27.4756H26.21C26.545 27.4756 26.8663 27.3426 27.1032 27.1057C27.3401 26.8688 27.4732 26.5475 27.4732 26.2125V24.9493ZM18.6311 17.3704C18.9661 17.3704 19.2874 17.5035 19.5243 17.7403C19.7612 17.9772 19.8942 18.2985 19.8942 18.6335C19.8942 18.9685 19.7612 19.2898 19.5243 19.5267C19.2874 19.7636 18.9661 19.8967 18.6311 19.8967H16.1048C15.7698 19.8967 15.4485 19.7636 15.2116 19.5267C14.9747 19.2898 14.8416 18.9685 14.8416 18.6335C14.8416 18.2985 14.9747 17.9772 15.2116 17.7403C15.4485 17.5035 15.7698 17.3704 16.1048 17.3704H18.6311ZM21.1574 12.3177C21.4924 12.3177 21.8137 12.4508 22.0506 12.6877C22.2875 12.9246 22.4206 13.2459 22.4206 13.5809C22.4206 13.9159 22.2875 14.2372 22.0506 14.4741C21.8137 14.711 21.4924 14.8441 21.1574 14.8441H16.1048C15.7698 14.8441 15.4485 14.711 15.2116 14.4741C14.9747 14.2372 14.8416 13.9159 14.8416 13.5809C14.8416 13.2459 14.9747 12.9246 15.2116 12.6877C15.4485 12.4508 15.7698 12.3177 16.1048 12.3177H21.1574ZM9.78898 8.52827C9.47959 8.52831 9.18098 8.6419 8.94977 8.84749C8.71857 9.05308 8.57086 9.33637 8.53467 9.64364L8.52582 9.79143V11.0546H9.78898V8.52827Z" fill="white"/>
</g>
</g>
<defs>
<linearGradient id="paint0_linear_496_292" x1="17.9995" y1="0.00195313" x2="17.9995" y2="36.002" gradientUnits="userSpaceOnUse">
<stop stop-color="#273762"/>
<stop offset="1" stop-color="#2A3E75"/>
</linearGradient>
<clipPath id="clip0_496_292">
<rect x="-0.000492096" y="0.00195312" width="36" height="36" rx="8" fill="white"/>
</clipPath>
<clipPath id="clip1_496_292">
<rect width="36" height="36" fill="white" transform="translate(-0.000492096 0.00195312)"/>
</clipPath>
</defs>
</svg>
