<svg width="600" height="800" viewBox="0 0 600 800" fill="none" xmlns="http://www.w3.org/2000/svg">
<path d="M0 99.8237C0 44.5953 44.7715 -0.17627 100 -0.17627C155.228 -0.17627 200 44.5953 200 99.8237V199.824H0V99.8237Z" fill="url(#paint0_linear_138_23)"/>
<path d="M0 199.824H200V299.824C200 355.052 155.228 399.824 100 399.824C44.7715 399.824 0 355.052 0 299.824V199.824Z" fill="url(#paint1_linear_138_23)"/>
<g clip-path="url(#clip0_138_23)">
<circle cx="100" cy="722.824" r="39.5" stroke="#3EACFC"/>
<circle cx="100" cy="722.824" r="49.5" stroke="#3EACFC"/>
<circle cx="100" cy="722.824" r="59.5" stroke="#3EACFC"/>
<circle cx="100" cy="722.824" r="69.5" stroke="#3EACFC"/>
<circle cx="100" cy="722.824" r="79.5" stroke="#3EACFC"/>
<path d="M0 602.824H53.4029L200 683.52V722.824H0V602.824Z" fill="#16C062"/>
</g>
<path d="M196.039 206.852L208.062 194.828C209.624 193.266 212.157 193.266 213.719 194.828L222.914 204.023C224.476 205.585 227.009 205.585 228.571 204.023L237.765 194.828C239.327 193.266 241.86 193.266 243.422 194.828L252.617 204.023C254.179 205.585 256.712 205.585 258.274 204.023L267.468 194.828C269.031 193.266 271.563 193.266 273.125 194.828L282.32 204.023C283.882 205.585 286.415 205.585 287.977 204.023L297.172 194.828C298.734 193.266 301.266 193.266 302.828 194.828L312.023 204.023C313.585 205.585 316.118 205.585 317.68 204.023L326.875 194.828C328.437 193.266 330.969 193.266 332.532 194.828L341.726 204.023C343.288 205.585 345.821 205.585 347.383 204.023L356.578 194.828C358.14 193.266 360.673 193.266 362.235 194.828L371.429 204.023C372.991 205.585 375.524 205.585 377.086 204.023L386.281 194.828C387.843 193.266 390.376 193.266 391.938 194.828L403.961 206.852" stroke="url(#paint2_linear_138_23)"/>
<path d="M196.039 182.852L208.062 170.828C209.624 169.266 212.157 169.266 213.719 170.828L222.914 180.023C224.476 181.585 227.009 181.585 228.571 180.023L237.765 170.828C239.327 169.266 241.86 169.266 243.422 170.828L252.617 180.023C254.179 181.585 256.712 181.585 258.274 180.023L267.468 170.828C269.031 169.266 271.563 169.266 273.125 170.828L282.32 180.023C283.882 181.585 286.415 181.585 287.977 180.023L297.172 170.828C298.734 169.266 301.266 169.266 302.828 170.828L312.023 180.023C313.585 181.585 316.118 181.585 317.68 180.023L326.875 170.828C328.437 169.266 330.969 169.266 332.532 170.828L341.726 180.023C343.288 181.585 345.821 181.585 347.383 180.023L356.578 170.828C358.14 169.266 360.673 169.266 362.235 170.828L371.429 180.023C372.991 181.585 375.524 181.585 377.086 180.023L386.281 170.828C387.843 169.266 390.376 169.266 391.938 170.828L403.961 182.852" stroke="url(#paint3_linear_138_23)"/>
<path d="M196.039 158.852L208.062 146.828C209.624 145.266 212.157 145.266 213.719 146.828L222.914 156.023C224.476 157.585 227.009 157.585 228.571 156.023L237.765 146.828C239.327 145.266 241.86 145.266 243.422 146.828L252.617 156.023C254.179 157.585 256.712 157.585 258.274 156.023L267.468 146.828C269.031 145.266 271.563 145.266 273.125 146.828L282.32 156.023C283.882 157.585 286.415 157.585 287.977 156.023L297.172 146.828C298.734 145.266 301.266 145.266 302.828 146.828L312.023 156.023C313.585 157.585 316.118 157.585 317.68 156.023L326.875 146.828C328.437 145.266 330.969 145.266 332.532 146.828L341.726 156.023C343.288 157.585 345.821 157.585 347.383 156.023L356.578 146.828C358.14 145.266 360.673 145.266 362.235 146.828L371.429 156.023C372.991 157.585 375.524 157.585 377.086 156.023L386.281 146.828C387.843 145.266 390.376 145.266 391.938 146.828L403.961 158.852" stroke="url(#paint4_linear_138_23)"/>
<path d="M196.039 134.852L208.062 122.828C209.624 121.266 212.157 121.266 213.719 122.828L222.914 132.023C224.476 133.585 227.009 133.585 228.571 132.023L237.765 122.828C239.327 121.266 241.86 121.266 243.422 122.828L252.617 132.023C254.179 133.585 256.712 133.585 258.274 132.023L267.468 122.828C269.031 121.266 271.563 121.266 273.125 122.828L282.32 132.023C283.882 133.585 286.415 133.585 287.977 132.023L297.172 122.828C298.734 121.266 301.266 121.266 302.828 122.828L312.023 132.023C313.585 133.585 316.118 133.585 317.68 132.023L326.875 122.828C328.437 121.266 330.969 121.266 332.532 122.828L341.726 132.023C343.288 133.585 345.821 133.585 347.383 132.023L356.578 122.828C358.14 121.266 360.673 121.266 362.235 122.828L371.429 132.023C372.991 133.585 375.524 133.585 377.086 132.023L386.281 122.828C387.843 121.266 390.376 121.266 391.938 122.828L403.961 134.852" stroke="url(#paint5_linear_138_23)"/>
<path d="M196.039 110.852L208.062 98.8284C209.624 97.2663 212.157 97.2663 213.719 98.8284L222.914 108.023C224.476 109.585 227.009 109.585 228.571 108.023L237.765 98.8284C239.327 97.2663 241.86 97.2663 243.422 98.8284L252.617 108.023C254.179 109.585 256.712 109.585 258.274 108.023L267.468 98.8284C269.031 97.2663 271.563 97.2663 273.125 98.8284L282.32 108.023C283.882 109.585 286.415 109.585 287.977 108.023L297.172 98.8284C298.734 97.2663 301.266 97.2663 302.828 98.8284L312.023 108.023C313.585 109.585 316.118 109.585 317.68 108.023L326.875 98.8284C328.437 97.2663 330.969 97.2663 332.532 98.8284L341.726 108.023C343.288 109.585 345.821 109.585 347.383 108.023L356.578 98.8284C358.14 97.2663 360.673 97.2663 362.235 98.8284L371.429 108.023C372.991 109.585 375.524 109.585 377.086 108.023L386.281 98.8284C387.843 97.2663 390.376 97.2663 391.938 98.8284L403.961 110.852" stroke="url(#paint6_linear_138_23)"/>
<path d="M196.039 86.8516L208.062 74.8284C209.624 73.2663 212.157 73.2663 213.719 74.8284L222.914 84.0231C224.476 85.5852 227.009 85.5852 228.571 84.0231L237.765 74.8284C239.327 73.2663 241.86 73.2663 243.422 74.8284L252.617 84.0231C254.179 85.5852 256.712 85.5852 258.274 84.0231L267.468 74.8284C269.031 73.2663 271.563 73.2663 273.125 74.8284L282.32 84.0231C283.882 85.5852 286.415 85.5852 287.977 84.0231L297.172 74.8284C298.734 73.2663 301.266 73.2663 302.828 74.8284L312.023 84.0231C313.585 85.5852 316.118 85.5852 317.68 84.0231L326.875 74.8284C328.437 73.2663 330.969 73.2663 332.532 74.8284L341.726 84.0231C343.288 85.5852 345.821 85.5852 347.383 84.0231L356.578 74.8284C358.14 73.2663 360.673 73.2663 362.235 74.8284L371.429 84.0231C372.991 85.5852 375.524 85.5852 377.086 84.0231L386.281 74.8284C387.843 73.2663 390.376 73.2663 391.938 74.8284L403.961 86.8516" stroke="url(#paint7_linear_138_23)"/>
<path d="M196.039 62.8516L208.062 50.8284C209.624 49.2663 212.157 49.2663 213.719 50.8284L222.914 60.0231C224.476 61.5852 227.009 61.5852 228.571 60.0231L237.765 50.8284C239.327 49.2663 241.86 49.2663 243.422 50.8284L252.617 60.0231C254.179 61.5852 256.712 61.5852 258.274 60.0231L267.468 50.8284C269.031 49.2663 271.563 49.2663 273.125 50.8284L282.32 60.0231C283.882 61.5852 286.415 61.5852 287.977 60.0231L297.172 50.8284C298.734 49.2663 301.266 49.2663 302.828 50.8284L312.023 60.0231C313.585 61.5852 316.118 61.5852 317.68 60.0231L326.875 50.8284C328.437 49.2663 330.969 49.2663 332.532 50.8284L341.726 60.0231C343.288 61.5852 345.821 61.5852 347.383 60.0231L356.578 50.8284C358.14 49.2663 360.673 49.2663 362.235 50.8284L371.429 60.0231C372.991 61.5852 375.524 61.5852 377.086 60.0231L386.281 50.8284C387.843 49.2663 390.376 49.2663 391.938 50.8284L403.961 62.8516" stroke="url(#paint8_linear_138_23)"/>
<path d="M196.039 38.8516L208.062 26.8284C209.624 25.2663 212.157 25.2663 213.719 26.8284L222.914 36.0231C224.476 37.5852 227.009 37.5852 228.571 36.0231L237.765 26.8284C239.327 25.2663 241.86 25.2663 243.422 26.8284L252.617 36.0231C254.179 37.5852 256.712 37.5852 258.274 36.0231L267.468 26.8284C269.031 25.2663 271.563 25.2663 273.125 26.8284L282.32 36.0231C283.882 37.5852 286.415 37.5852 287.977 36.0231L297.172 26.8284C298.734 25.2663 301.266 25.2663 302.828 26.8284L312.023 36.0231C313.585 37.5852 316.118 37.5852 317.68 36.0231L326.875 26.8284C328.437 25.2663 330.969 25.2663 332.532 26.8284L341.726 36.0231C343.288 37.5852 345.821 37.5852 347.383 36.0231L356.578 26.8284C358.14 25.2663 360.673 25.2663 362.235 26.8284L371.429 36.0231C372.991 37.5852 375.524 37.5852 377.086 36.0231L386.281 26.8284C387.843 25.2663 390.376 25.2663 391.938 26.8284L403.961 38.8516" stroke="url(#paint9_linear_138_23)"/>
<path d="M196.039 14.8516L208.062 2.82843C209.624 1.26633 212.157 1.26633 213.719 2.82843L222.914 12.0231C224.476 13.5852 227.009 13.5852 228.571 12.0231L237.765 2.82843C239.327 1.26633 241.86 1.26633 243.422 2.82843L252.617 12.0231C254.179 13.5852 256.712 13.5852 258.274 12.0231L267.468 2.82843C269.031 1.26633 271.563 1.26633 273.125 2.82843L282.32 12.0231C283.882 13.5852 286.415 13.5852 287.977 12.0231L297.172 2.82843C298.734 1.26633 301.266 1.26633 302.828 2.82843L312.023 12.0231C313.585 13.5852 316.118 13.5852 317.68 12.0231L326.875 2.82843C328.437 1.26633 330.969 1.26633 332.532 2.82843L341.726 12.0231C343.288 13.5852 345.821 13.5852 347.383 12.0231L356.578 2.82843C358.14 1.26633 360.673 1.26633 362.235 2.82843L371.429 12.0231C372.991 13.5852 375.524 13.5852 377.086 12.0231L386.281 2.82843C387.843 1.26633 390.376 1.26633 391.938 2.82843L403.961 14.8516" stroke="url(#paint10_linear_138_23)"/>
<line x1="295.5" y1="263.659" x2="295.5" y2="402.824" stroke="url(#paint11_linear_138_23)"/>
<line x1="305.5" y1="263.659" x2="305.5" y2="402.824" stroke="url(#paint12_linear_138_23)"/>
<line x1="314.5" y1="402.824" x2="314.5" y2="273.664" stroke="url(#paint13_linear_138_23)"/>
<line x1="284.5" y1="402.824" x2="284.5" y2="273.664" stroke="url(#paint14_linear_138_23)"/>
<line x1="274.5" y1="402.824" x2="274.5" y2="283.664" stroke="url(#paint15_linear_138_23)"/>
<line x1="264.5" y1="402.824" x2="264.5" y2="293.664" stroke="url(#paint16_linear_138_23)"/>
<line x1="254.5" y1="402.824" x2="254.5" y2="303.664" stroke="url(#paint17_linear_138_23)"/>
<line x1="244.5" y1="402.824" x2="244.5" y2="313.664" stroke="url(#paint18_linear_138_23)"/>
<line x1="234.5" y1="402.824" x2="234.5" y2="323.664" stroke="url(#paint19_linear_138_23)"/>
<line x1="224.5" y1="402.824" x2="224.5" y2="334.664" stroke="url(#paint20_linear_138_23)"/>
<line x1="214.5" y1="402.824" x2="214.5" y2="344.664" stroke="url(#paint21_linear_138_23)"/>
<line x1="204.5" y1="402.824" x2="204.5" y2="354.664" stroke="url(#paint22_linear_138_23)"/>
<line x1="324.5" y1="402.824" x2="324.5" y2="283.664" stroke="url(#paint23_linear_138_23)"/>
<line x1="334.5" y1="402.824" x2="334.5" y2="293.664" stroke="url(#paint24_linear_138_23)"/>
<line x1="344.5" y1="402.824" x2="344.5" y2="303.664" stroke="url(#paint25_linear_138_23)"/>
<line x1="354.5" y1="402.824" x2="354.5" y2="313.664" stroke="url(#paint26_linear_138_23)"/>
<line x1="364.5" y1="402.824" x2="364.5" y2="323.664" stroke="url(#paint27_linear_138_23)"/>
<line x1="374.5" y1="402.824" x2="374.5" y2="333.664" stroke="url(#paint28_linear_138_23)"/>
<line x1="384.5" y1="402.824" x2="384.5" y2="343.664" stroke="url(#paint29_linear_138_23)"/>
<line x1="394.5" y1="402.824" x2="394.5" y2="353.664" stroke="url(#paint30_linear_138_23)"/>
<path d="M399.997 602.824L200 602.824L200 402.824L399.997 602.824Z" fill="url(#paint31_linear_138_23)"/>
<path d="M262.679 412.824L292.679 430.144L262.679 447.465L262.679 412.824Z" fill="#3EACFC"/>
<path d="M312.679 412.824L342.679 430.144L312.679 447.465L312.679 412.824Z" fill="url(#paint32_linear_138_23)"/>
<path d="M362.679 412.824L392.679 430.144L362.679 447.465L362.679 412.824Z" fill="#16C062"/>
<g clip-path="url(#clip1_138_23)">
<path d="M200 702.824C200 647.595 244.772 602.824 300 602.824C355.228 602.824 400 647.595 400 702.824V722.824H200V702.824Z" fill="url(#paint33_linear_138_23)"/>
<rect x="200" y="722.824" width="200" height="8" fill="#3EACFC"/>
<rect x="200" y="734.824" width="200" height="8" fill="#3EACFC" fill-opacity="0.8"/>
<rect x="200" y="746.824" width="200" height="8" fill="#3EACFC" fill-opacity="0.7"/>
<rect x="200" y="758.824" width="200" height="8" fill="#3EACFC" fill-opacity="0.6"/>
<rect x="200" y="770.824" width="200" height="8" fill="#3EACFC" fill-opacity="0.5"/>
<rect x="200" y="782.824" width="200" height="8" fill="#3EACFC" fill-opacity="0.4"/>
<rect x="200" y="794.824" width="200" height="8" fill="#3EACFC" fill-opacity="0.2"/>
</g>
<path d="M400 90.7969H600V102.824C600 158.052 555.228 202.824 500 202.824C444.772 202.824 400 158.052 400 102.824V90.7969Z" fill="#16C062"/>
<rect x="400" y="-0.17627" width="200" height="87.9731" fill="#3EACFC"/>
<line x1="599.5" y1="81.9839" x2="599.5" y2="2.82388" stroke="white"/>
<line x1="589.5" y1="81.9839" x2="589.5" y2="2.82388" stroke="white"/>
<line x1="579.5" y1="81.9839" x2="579.5" y2="2.82388" stroke="white"/>
<line x1="569.5" y1="81.9839" x2="569.5" y2="2.82388" stroke="white"/>
<line x1="559.5" y1="81.9839" x2="559.5" y2="2.82388" stroke="white"/>
<line x1="549.5" y1="81.9839" x2="549.5" y2="2.82388" stroke="white"/>
<line x1="539.5" y1="81.9839" x2="539.5" y2="2.82388" stroke="white"/>
<line x1="529.5" y1="81.9839" x2="529.5" y2="2.82388" stroke="white"/>
<line x1="519.5" y1="81.9839" x2="519.5" y2="2.82388" stroke="white"/>
<line x1="509.5" y1="81.9839" x2="509.5" y2="2.82388" stroke="white"/>
<line x1="499.5" y1="81.9839" x2="499.5" y2="2.82388" stroke="white"/>
<line x1="489.5" y1="81.9839" x2="489.5" y2="2.82388" stroke="white"/>
<g clip-path="url(#clip2_138_23)">
<g clip-path="url(#clip3_138_23)">
<rect x="400" y="202.824" width="200" height="200" fill="#3EACFC"/>
<circle cx="411" cy="213.824" r="5" fill="white"/>
<circle cx="431" cy="213.824" r="5" fill="white"/>
<circle cx="451" cy="213.824" r="5" fill="white"/>
<circle cx="471" cy="213.824" r="5" fill="white"/>
<circle cx="491" cy="213.824" r="5" fill="white"/>
<circle cx="511" cy="213.824" r="5" fill="white"/>
<circle cx="531" cy="213.824" r="5" fill="white"/>
<circle cx="411" cy="233.824" r="5" fill="white"/>
<circle cx="431" cy="233.824" r="5" fill="white"/>
<circle cx="451" cy="233.824" r="5" fill="white"/>
<circle cx="471" cy="233.824" r="5" fill="white"/>
<circle cx="491" cy="233.824" r="5" fill="white"/>
<circle cx="511" cy="233.824" r="5" fill="white"/>
<circle cx="531" cy="233.824" r="5" fill="white"/>
<circle cx="411" cy="253.824" r="5" fill="white"/>
<circle cx="431" cy="253.824" r="5" fill="white"/>
<circle cx="451" cy="253.824" r="5" fill="white"/>
<circle cx="471" cy="253.824" r="5" fill="white"/>
<circle cx="491" cy="253.824" r="5" fill="white"/>
<circle cx="511" cy="253.824" r="5" fill="white"/>
<circle cx="531" cy="253.824" r="5" fill="white"/>
<circle cx="411" cy="273.824" r="5" fill="white"/>
<circle cx="431" cy="273.824" r="5" fill="white"/>
<circle cx="451" cy="273.824" r="5" fill="white"/>
<circle cx="471" cy="273.824" r="5" fill="white"/>
<circle cx="491" cy="273.824" r="5" fill="white"/>
<circle cx="511" cy="273.824" r="5" fill="white"/>
<circle cx="531" cy="273.824" r="5" fill="white"/>
<circle cx="411" cy="293.824" r="5" fill="white"/>
<circle cx="431" cy="293.824" r="5" fill="white"/>
<circle cx="451" cy="293.824" r="5" fill="white"/>
<circle cx="471" cy="293.824" r="5" fill="white"/>
<circle cx="491" cy="293.824" r="5" fill="white"/>
<circle cx="511" cy="293.824" r="5" fill="white"/>
<circle cx="531" cy="293.824" r="5" fill="white"/>
</g>
<circle cx="580" cy="484.824" r="19.5" stroke="#16C062"/>
<circle cx="580" cy="484.824" r="29.5" stroke="#16C062"/>
<circle cx="580" cy="484.824" r="39.5" stroke="#16C062"/>
<circle cx="580" cy="484.824" r="49.5" stroke="#16C062"/>
<circle cx="580" cy="484.824" r="59.5" stroke="#16C062"/>
<circle cx="580" cy="484.824" r="69.5" stroke="#16C062"/>
<circle cx="580" cy="484.824" r="79.5" stroke="#16C062"/>
<circle cx="580" cy="484.824" r="89.5" stroke="#16C062"/>
<circle cx="580" cy="484.824" r="99.5" stroke="#16C062"/>
<circle cx="580" cy="484.824" r="109.5" stroke="#16C062"/>
<circle cx="580" cy="484.824" r="119.5" stroke="#16C062"/>
<circle cx="580" cy="484.824" r="129.5" stroke="#16C062"/>
<circle cx="580" cy="484.824" r="139.5" stroke="#16C062"/>
<circle cx="580" cy="484.824" r="149.5" stroke="#16C062"/>
<circle cx="580" cy="484.824" r="159.5" stroke="#16C062"/>
<circle cx="580" cy="484.824" r="169.5" stroke="#16C062"/>
<circle cx="580" cy="484.824" r="179.5" stroke="#16C062"/>
</g>
<circle cx="100" cy="233.824" r="5" fill="white"/>
<circle cx="120" cy="233.824" r="5" fill="white"/>
<circle cx="140" cy="233.824" r="5" fill="white"/>
<circle cx="160" cy="233.824" r="5" fill="white"/>
<circle cx="180" cy="233.824" r="5" fill="white"/>
<circle cx="200" cy="233.824" r="5" fill="white"/>
<circle cx="220" cy="233.824" r="5" fill="white"/>
<circle cx="100" cy="253.824" r="5" fill="white"/>
<circle cx="120" cy="253.824" r="5" fill="white"/>
<circle cx="140" cy="253.824" r="5" fill="white"/>
<circle cx="160" cy="253.824" r="5" fill="white"/>
<circle cx="180" cy="253.824" r="5" fill="white"/>
<circle cx="200" cy="253.824" r="5" fill="white"/>
<circle cx="220" cy="253.824" r="5" fill="white"/>
<circle cx="100" cy="273.824" r="5" fill="white"/>
<circle cx="120" cy="273.824" r="5" fill="white"/>
<circle cx="140" cy="273.824" r="5" fill="white"/>
<circle cx="160" cy="273.824" r="5" fill="white"/>
<circle cx="180" cy="273.824" r="5" fill="white"/>
<circle cx="200" cy="273.824" r="5" fill="white"/>
<circle cx="220" cy="273.824" r="5" fill="white"/>
<circle cx="100" cy="293.824" r="5" fill="white"/>
<circle cx="120" cy="293.824" r="5" fill="white"/>
<circle cx="140" cy="293.824" r="5" fill="white"/>
<circle cx="160" cy="293.824" r="5" fill="white"/>
<circle cx="180" cy="293.824" r="5" fill="white"/>
<circle cx="200" cy="293.824" r="5" fill="white"/>
<circle cx="220" cy="293.824" r="5" fill="white"/>
<circle cx="100" cy="313.824" r="5" fill="white"/>
<circle cx="120" cy="313.824" r="5" fill="white"/>
<circle cx="140" cy="313.824" r="5" fill="white"/>
<circle cx="160" cy="313.824" r="5" fill="white"/>
<circle cx="180" cy="313.824" r="5" fill="white"/>
<circle cx="200" cy="313.824" r="5" fill="white"/>
<circle cx="220" cy="313.824" r="5" fill="white"/>
<path d="M100 402.824L116.378 452.418L158.779 421.922L142.878 471.671L195.106 471.922L153 502.824L195.106 533.725L142.878 533.976L158.779 583.725L116.378 553.23L100 602.824L83.6221 553.23L41.2215 583.725L57.1221 533.976L4.89435 533.725L47 502.824L4.89435 471.922L57.1221 471.671L41.2215 421.922L83.6221 452.418L100 402.824Z" fill="#3EACFC"/>
<path d="M425.5 802.824C425.5 782.933 430.014 763.237 438.783 744.86C447.552 726.484 460.406 709.787 476.61 695.722C492.814 681.657 512.05 670.5 533.222 662.888C554.393 655.276 577.084 651.359 600 651.359L600 802.824L425.5 802.824Z" fill="#3EACFC"/>
<defs>
<linearGradient id="paint0_linear_138_23" x1="158.589" y1="-0.169566" x2="-86.1323" y2="217.876" gradientUnits="userSpaceOnUse">
<stop stop-color="#16C062"/>
<stop offset="1" stop-color="#3EACFC"/>
</linearGradient>
<linearGradient id="paint1_linear_138_23" x1="158.589" y1="-0.169566" x2="-86.1323" y2="217.876" gradientUnits="userSpaceOnUse">
<stop stop-color="#16C062"/>
<stop offset="1" stop-color="#3EACFC"/>
</linearGradient>
<linearGradient id="paint2_linear_138_23" x1="360.91" y1="192" x2="360.178" y2="210.265" gradientUnits="userSpaceOnUse">
<stop stop-color="#16C062"/>
<stop offset="1" stop-color="#3EACFC"/>
</linearGradient>
<linearGradient id="paint3_linear_138_23" x1="360.91" y1="168" x2="360.178" y2="186.265" gradientUnits="userSpaceOnUse">
<stop stop-color="#16C062"/>
<stop offset="1" stop-color="#3EACFC"/>
</linearGradient>
<linearGradient id="paint4_linear_138_23" x1="360.91" y1="144" x2="360.178" y2="162.265" gradientUnits="userSpaceOnUse">
<stop stop-color="#16C062"/>
<stop offset="1" stop-color="#3EACFC"/>
</linearGradient>
<linearGradient id="paint5_linear_138_23" x1="360.91" y1="120" x2="360.178" y2="138.265" gradientUnits="userSpaceOnUse">
<stop stop-color="#16C062"/>
<stop offset="1" stop-color="#3EACFC"/>
</linearGradient>
<linearGradient id="paint6_linear_138_23" x1="360.91" y1="96.0002" x2="360.178" y2="114.265" gradientUnits="userSpaceOnUse">
<stop stop-color="#16C062"/>
<stop offset="1" stop-color="#3EACFC"/>
</linearGradient>
<linearGradient id="paint7_linear_138_23" x1="360.91" y1="72.0002" x2="360.178" y2="90.2646" gradientUnits="userSpaceOnUse">
<stop stop-color="#16C062"/>
<stop offset="1" stop-color="#3EACFC"/>
</linearGradient>
<linearGradient id="paint8_linear_138_23" x1="360.91" y1="48.0002" x2="360.178" y2="66.2646" gradientUnits="userSpaceOnUse">
<stop stop-color="#16C062"/>
<stop offset="1" stop-color="#3EACFC"/>
</linearGradient>
<linearGradient id="paint9_linear_138_23" x1="360.91" y1="24.0002" x2="360.178" y2="42.2646" gradientUnits="userSpaceOnUse">
<stop stop-color="#16C062"/>
<stop offset="1" stop-color="#3EACFC"/>
</linearGradient>
<linearGradient id="paint10_linear_138_23" x1="360.91" y1="0.000248904" x2="360.178" y2="18.2646" gradientUnits="userSpaceOnUse">
<stop stop-color="#16C062"/>
<stop offset="1" stop-color="#3EACFC"/>
</linearGradient>
<linearGradient id="paint11_linear_138_23" x1="295" y1="374.009" x2="293.768" y2="374.004" gradientUnits="userSpaceOnUse">
<stop stop-color="#16C062"/>
<stop offset="1" stop-color="#3EACFC"/>
</linearGradient>
<linearGradient id="paint12_linear_138_23" x1="305" y1="374.009" x2="303.768" y2="374.004" gradientUnits="userSpaceOnUse">
<stop stop-color="#16C062"/>
<stop offset="1" stop-color="#3EACFC"/>
</linearGradient>
<linearGradient id="paint13_linear_138_23" x1="315" y1="300.407" x2="316.232" y2="300.412" gradientUnits="userSpaceOnUse">
<stop stop-color="#16C062"/>
<stop offset="1" stop-color="#3EACFC"/>
</linearGradient>
<linearGradient id="paint14_linear_138_23" x1="285" y1="300.407" x2="286.232" y2="300.412" gradientUnits="userSpaceOnUse">
<stop stop-color="#16C062"/>
<stop offset="1" stop-color="#3EACFC"/>
</linearGradient>
<linearGradient id="paint15_linear_138_23" x1="275" y1="308.336" x2="276.232" y2="308.342" gradientUnits="userSpaceOnUse">
<stop stop-color="#16C062"/>
<stop offset="1" stop-color="#3EACFC"/>
</linearGradient>
<linearGradient id="paint16_linear_138_23" x1="265" y1="316.266" x2="266.232" y2="316.272" gradientUnits="userSpaceOnUse">
<stop stop-color="#16C062"/>
<stop offset="1" stop-color="#3EACFC"/>
</linearGradient>
<linearGradient id="paint17_linear_138_23" x1="255" y1="324.195" x2="256.232" y2="324.202" gradientUnits="userSpaceOnUse">
<stop stop-color="#16C062"/>
<stop offset="1" stop-color="#3EACFC"/>
</linearGradient>
<linearGradient id="paint18_linear_138_23" x1="245" y1="332.125" x2="246.232" y2="332.132" gradientUnits="userSpaceOnUse">
<stop stop-color="#16C062"/>
<stop offset="1" stop-color="#3EACFC"/>
</linearGradient>
<linearGradient id="paint19_linear_138_23" x1="235" y1="340.054" x2="236.232" y2="340.063" gradientUnits="userSpaceOnUse">
<stop stop-color="#16C062"/>
<stop offset="1" stop-color="#3EACFC"/>
</linearGradient>
<linearGradient id="paint20_linear_138_23" x1="225" y1="348.777" x2="226.232" y2="348.787" gradientUnits="userSpaceOnUse">
<stop stop-color="#16C062"/>
<stop offset="1" stop-color="#3EACFC"/>
</linearGradient>
<linearGradient id="paint21_linear_138_23" x1="215" y1="356.706" x2="216.232" y2="356.718" gradientUnits="userSpaceOnUse">
<stop stop-color="#16C062"/>
<stop offset="1" stop-color="#3EACFC"/>
</linearGradient>
<linearGradient id="paint22_linear_138_23" x1="205" y1="364.635" x2="206.232" y2="364.65" gradientUnits="userSpaceOnUse">
<stop stop-color="#16C062"/>
<stop offset="1" stop-color="#3EACFC"/>
</linearGradient>
<linearGradient id="paint23_linear_138_23" x1="325" y1="308.336" x2="326.232" y2="308.342" gradientUnits="userSpaceOnUse">
<stop stop-color="#16C062"/>
<stop offset="1" stop-color="#3EACFC"/>
</linearGradient>
<linearGradient id="paint24_linear_138_23" x1="335" y1="316.266" x2="336.232" y2="316.272" gradientUnits="userSpaceOnUse">
<stop stop-color="#16C062"/>
<stop offset="1" stop-color="#3EACFC"/>
</linearGradient>
<linearGradient id="paint25_linear_138_23" x1="345" y1="324.195" x2="346.232" y2="324.202" gradientUnits="userSpaceOnUse">
<stop stop-color="#16C062"/>
<stop offset="1" stop-color="#3EACFC"/>
</linearGradient>
<linearGradient id="paint26_linear_138_23" x1="355" y1="332.125" x2="356.232" y2="332.132" gradientUnits="userSpaceOnUse">
<stop stop-color="#16C062"/>
<stop offset="1" stop-color="#3EACFC"/>
</linearGradient>
<linearGradient id="paint27_linear_138_23" x1="365" y1="340.054" x2="366.232" y2="340.063" gradientUnits="userSpaceOnUse">
<stop stop-color="#16C062"/>
<stop offset="1" stop-color="#3EACFC"/>
</linearGradient>
<linearGradient id="paint28_linear_138_23" x1="375" y1="347.984" x2="376.232" y2="347.994" gradientUnits="userSpaceOnUse">
<stop stop-color="#16C062"/>
<stop offset="1" stop-color="#3EACFC"/>
</linearGradient>
<linearGradient id="paint29_linear_138_23" x1="385" y1="355.913" x2="386.232" y2="355.925" gradientUnits="userSpaceOnUse">
<stop stop-color="#16C062"/>
<stop offset="1" stop-color="#3EACFC"/>
</linearGradient>
<linearGradient id="paint30_linear_138_23" x1="395" y1="363.843" x2="396.232" y2="363.857" gradientUnits="userSpaceOnUse">
<stop stop-color="#16C062"/>
<stop offset="1" stop-color="#3EACFC"/>
</linearGradient>
<linearGradient id="paint31_linear_138_23" x1="399.994" y1="561.413" x2="212.642" y2="456.278" gradientUnits="userSpaceOnUse">
<stop stop-color="#16C062"/>
<stop offset="1" stop-color="#3EACFC"/>
</linearGradient>
<linearGradient id="paint32_linear_138_23" x1="322.828" y1="406.965" x2="323.353" y2="449.93" gradientUnits="userSpaceOnUse">
<stop stop-color="#16C062"/>
<stop offset="1" stop-color="#3EACFC"/>
</linearGradient>
<linearGradient id="paint33_linear_138_23" x1="358.589" y1="602.826" x2="313.888" y2="735.587" gradientUnits="userSpaceOnUse">
<stop stop-color="#16C062"/>
<stop offset="1" stop-color="#3EACFC"/>
</linearGradient>
<clipPath id="clip0_138_23">
<rect width="200" height="200" fill="white" transform="translate(0 602.824)"/>
</clipPath>
<clipPath id="clip1_138_23">
<rect width="200" height="200" fill="white" transform="translate(200 602.824)"/>
</clipPath>
<clipPath id="clip2_138_23">
<rect width="200" height="600" fill="white" transform="translate(400 202.824)"/>
</clipPath>
<clipPath id="clip3_138_23">
<rect width="200" height="200" fill="white" transform="translate(400 202.824)"/>
</clipPath>
</defs>
</svg>
