<svg width="401" height="400" viewBox="0 0 401 400" fill="none" xmlns="http://www.w3.org/2000/svg">
<g opacity="0.12">
<path d="M281.529 73.61L360.484 245.666L398.23 175.934C400.417 172.201 400.664 167.707 398.899 163.775L329.672 8.65496C327.101 2.92963 320.256 -0.760458 313.808 0.13311L138.72 24.3946C130.115 25.5241 119.319 30.6859 113.921 37.5683L67.1383 102.951L281.529 73.61Z" fill="url(#paint0_linear_656_858)"/>
<path d="M264.107 264.534L227.549 194.544L271.335 119.39L344.515 276.01C347.116 281.723 343.124 290.338 338.026 294.218L203.891 397.004C200.39 399.669 195.792 400.626 191.45 399.592L112.321 377.931L264.107 264.534Z" fill="url(#paint1_linear_656_858)"/>
<path d="M121.653 188.644L202.398 181.145L246.184 105.991L69.1304 129.304L69.1253 129.305C59.4472 130.941 59.4441 130.942 46.8509 132.662L0.0678711 201.486L50.4496 196.324L35.5463 307.322C35.0191 311.571 36.5884 315.813 39.7926 318.8L100.698 371.74L121.653 188.644Z" fill="url(#paint2_linear_656_858)"/>
</g>
<defs>
<linearGradient id="paint0_linear_656_858" x1="317.245" y1="0.00670377" x2="106.971" y2="374.713" gradientUnits="userSpaceOnUse">
<stop stop-color="#16C062"/>
<stop offset="1" stop-color="#3EACFC"/>
</linearGradient>
<linearGradient id="paint1_linear_656_858" x1="317.245" y1="0.00670377" x2="106.971" y2="374.713" gradientUnits="userSpaceOnUse">
<stop stop-color="#16C062"/>
<stop offset="1" stop-color="#3EACFC"/>
</linearGradient>
<linearGradient id="paint2_linear_656_858" x1="317.245" y1="0.00670377" x2="106.971" y2="374.713" gradientUnits="userSpaceOnUse">
<stop stop-color="#16C062"/>
<stop offset="1" stop-color="#3EACFC"/>
</linearGradient>
</defs>
</svg>
