<svg width="36" height="36" viewBox="0 0 36 36" fill="none" xmlns="http://www.w3.org/2000/svg">
<g clip-path="url(#clip0_496_345)">
<g clip-path="url(#clip1_496_345)">
<path d="M17.9995 36C27.9406 36 35.9995 27.9411 35.9995 18C35.9995 8.05887 27.9406 0 17.9995 0C8.05839 0 -0.000488281 8.05887 -0.000488281 18C-0.000488281 27.9411 8.05839 36 17.9995 36Z" fill="#F3BA2F"/>
<path d="M14.2343 16.4531L17.9995 12.6878L21.7647 16.4566L23.955 14.2664L17.9995 8.30737L12.044 14.2628L14.2343 16.4531Z" fill="white"/>
<path d="M8.30742 17.9983L10.4975 15.8082L12.6876 17.9982L10.4976 20.1884L8.30742 17.9983Z" fill="white"/>
<path d="M14.2343 19.547L17.9995 23.3122L21.7647 19.5435L23.9585 21.7337H23.955L17.9995 27.6927L12.044 21.7372L12.0405 21.7337L14.2343 19.547Z" fill="white"/>
<path d="M23.3106 18.002L25.5007 15.8118L27.6908 18.0019L25.5007 20.192L23.3106 18.002Z" fill="white"/>
<path d="M20.2214 18L17.9995 15.7747L16.3577 17.42L16.1679 17.6063L15.7776 17.9965L15.7741 18L15.7776 18.0036L17.9995 20.2254L20.2214 18Z" fill="white"/>
</g>
</g>
<defs>
<clipPath id="clip0_496_345">
<rect width="36" height="36" fill="white" transform="translate(-0.000488281)"/>
</clipPath>
<clipPath id="clip1_496_345">
<rect width="36" height="36" fill="white" transform="translate(-0.000488281)"/>
</clipPath>
</defs>
</svg>
