<svg width="24" height="25" viewBox="0 0 24 25" fill="none" xmlns="http://www.w3.org/2000/svg">
<g clip-path="url(#clip0_319_140)">
<path d="M18.375 0.5H5.625C2.5184 0.5 0 3.0184 0 6.125V18.875C0 21.9816 2.5184 24.5 5.625 24.5H18.375C21.4816 24.5 24 21.9816 24 18.875V6.125C24 3.0184 21.4816 0.5 18.375 0.5Z" fill="#5865F2"/>
<mask id="mask0_319_140" style="mask-type:luminance" maskUnits="userSpaceOnUse" x="2" y="5" width="20" height="15">
<path d="M2.625 5.28125H21.375V19.8059H2.625V5.28125Z" fill="white"/>
</mask>
<g mask="url(#mask0_319_140)">
<path d="M18.4976 6.57471C17.282 6.01678 15.9991 5.61886 14.6812 5.39093C14.6692 5.38874 14.6568 5.39037 14.6458 5.39559C14.6348 5.4008 14.6257 5.40934 14.6198 5.41999C14.455 5.71305 14.2724 6.09555 14.1446 6.39612C12.7034 6.1803 11.2697 6.1803 9.85809 6.39612C9.73022 6.0888 9.54103 5.71305 9.37547 5.41999C9.36937 5.40951 9.36024 5.40112 9.34927 5.39593C9.33831 5.39074 9.32604 5.389 9.31406 5.39093C7.99595 5.61835 6.71303 6.01628 5.49759 6.57471C5.48725 6.57921 5.47849 6.58673 5.47247 6.59627C3.04172 10.2278 2.37591 13.77 2.70253 17.2684C2.70452 17.2857 2.71329 17.3015 2.72691 17.3123C4.33059 18.4901 5.88412 19.2051 7.40878 19.679C7.42064 19.6825 7.43329 19.6823 7.44505 19.6785C7.4568 19.6746 7.46711 19.6673 7.47459 19.6574C7.83525 19.1649 8.15672 18.6456 8.43244 18.0995C8.43623 18.092 8.4384 18.0838 8.4388 18.0754C8.43919 18.0671 8.43781 18.0587 8.43474 18.0509C8.43166 18.0431 8.42697 18.036 8.42096 18.0302C8.41496 18.0243 8.40778 18.0198 8.39991 18.0169C7.88991 17.8234 7.40437 17.5876 6.93731 17.3198C6.92881 17.3148 6.92166 17.3077 6.91651 17.2993C6.91136 17.2909 6.90836 17.2813 6.90778 17.2715C6.9072 17.2616 6.90904 17.2518 6.91317 17.2428C6.91729 17.2338 6.92355 17.226 6.93141 17.22C7.02994 17.1464 7.12678 17.0705 7.22184 16.9924C7.23018 16.9855 7.24026 16.9811 7.25095 16.9797C7.26165 16.9782 7.27254 16.9798 7.28241 16.9841C10.351 18.3851 13.6731 18.3851 16.7054 16.9841C16.7153 16.9795 16.7263 16.9777 16.7372 16.9791C16.7481 16.9804 16.7583 16.9847 16.7668 16.9916C16.862 17.0702 16.9591 17.1463 17.058 17.22C17.0659 17.2259 17.0722 17.2337 17.0764 17.2427C17.0806 17.2516 17.0825 17.2614 17.082 17.2713C17.0815 17.2811 17.0785 17.2907 17.0735 17.2992C17.0684 17.3076 17.0613 17.3147 17.0528 17.3198C16.5855 17.5926 16.096 17.8256 15.5895 18.0161C15.5817 18.0192 15.5745 18.0238 15.5686 18.0298C15.5627 18.0357 15.558 18.0429 15.555 18.0507C15.5521 18.0586 15.5507 18.067 15.5512 18.0754C15.5517 18.0838 15.5539 18.092 15.5577 18.0995C15.8382 18.6413 16.1581 19.1617 16.5147 19.6567C16.522 19.6668 16.5323 19.6743 16.5441 19.6783C16.5559 19.6823 16.5686 19.6826 16.5805 19.679C18.1126 19.2051 19.6661 18.4901 21.2699 17.3123C21.2768 17.3072 21.2825 17.3007 21.2867 17.2933C21.2909 17.2859 21.2935 17.2776 21.2943 17.2691C21.6852 13.2247 20.6394 9.7114 18.522 6.59702C18.5169 6.58687 18.5082 6.57894 18.4976 6.57471ZM8.89069 15.1383C7.96678 15.1383 7.20553 14.2901 7.20553 13.2485C7.20553 12.2068 7.95206 11.3587 8.89069 11.3587C9.83662 11.3587 10.5905 12.2143 10.5757 13.2485C10.5757 14.2901 9.82922 15.1383 8.89069 15.1383ZM15.1209 15.1383C14.197 15.1383 13.4359 14.2901 13.4359 13.2485C13.4359 12.2068 14.1823 11.3587 15.1209 11.3587C16.0669 11.3587 16.8207 12.2143 16.806 13.2485C16.806 14.2901 16.0669 15.1383 15.1209 15.1383Z" fill="white"/>
</g>
</g>
<defs>
<clipPath id="clip0_319_140">
<rect width="24" height="24" fill="white" transform="translate(0 0.5)"/>
</clipPath>
</defs>
</svg>
