<svg width="6" height="4" viewBox="0 0 6 4" fill="none" xmlns="http://www.w3.org/2000/svg">
<path d="M2.81308 0.0763621L0.0713045 2.82017C0.0255335 2.86595 6.14955e-09 2.92678 6.28245e-09 2.99003C6.41535e-09 3.05328 0.0255335 3.11411 0.0713045 3.15989L0.0744026 3.16284C0.0965915 3.18511 0.1233 3.20285 0.152904 3.21497C0.182507 3.22708 0.214387 3.23333 0.246603 3.23333C0.278819 3.23333 0.310699 3.22708 0.340302 3.21497C0.369906 3.20285 0.396614 3.18511 0.418803 3.16284L3.00052 0.579041L5.5812 3.16284C5.60338 3.18511 5.63009 3.20285 5.6597 3.21497C5.6893 3.22708 5.72118 3.23333 5.7534 3.23333C5.78561 3.23333 5.81749 3.22708 5.8471 3.21497C5.8767 3.20285 5.90341 3.18511 5.9256 3.16284L5.92869 3.15989C5.97447 3.11411 6 3.05328 6 2.99003C6 2.92678 5.97447 2.86595 5.92869 2.82017L3.18692 0.0763621C3.1628 0.0522314 3.1338 0.0330207 3.10167 0.0198945C3.06954 0.00676838 3.03495 0 3 0C2.96504 0 2.93045 0.00676838 2.89832 0.0198945C2.86619 0.0330207 2.8372 0.0522314 2.81308 0.0763621Z" fill="url(#paint0_linear_1387_4037)"/>
<defs>
<linearGradient id="paint0_linear_1387_4037" x1="4.75767" y1="5.41888e-05" x2="3.65419" y2="3.64906" gradientUnits="userSpaceOnUse">
<stop stop-color="#16C062"/>
<stop offset="1" stop-color="#3EACFC"/>
</linearGradient>
</defs>
</svg>
