<svg width="10" height="10" viewBox="0 0 10 10" fill="none" xmlns="http://www.w3.org/2000/svg">
<g clip-path="url(#clip0_991_514)">
<path d="M8.87095 2.45413L4.70428 6.6208C4.66573 6.65942 4.61994 6.69007 4.56954 6.71098C4.51913 6.73188 4.4651 6.74265 4.41053 6.74265C4.35596 6.74265 4.30192 6.73188 4.25152 6.71098C4.20111 6.69007 4.15533 6.65942 4.11678 6.6208L2.93761 5.44163C2.89904 5.40305 2.86844 5.35726 2.84756 5.30686C2.82668 5.25645 2.81594 5.20243 2.81594 5.14788C2.81594 5.09332 2.82668 5.0393 2.84756 4.9889C2.86844 4.9385 2.89904 4.8927 2.93761 4.85413C2.97619 4.81555 3.02198 4.78495 3.07239 4.76408C3.12279 4.7432 3.17681 4.73245 3.23136 4.73245C3.28592 4.73245 3.33994 4.7432 3.39034 4.76408C3.44074 4.78495 3.48654 4.81555 3.52511 4.85413L4.40845 5.73746L8.27928 1.86663C8.31783 1.828 8.36362 1.79736 8.41402 1.77645C8.46443 1.75554 8.51846 1.74478 8.57303 1.74478C8.6276 1.74478 8.68163 1.75554 8.73204 1.77645C8.78245 1.79736 8.82823 1.828 8.86678 1.86663C9.03345 2.02913 9.03345 2.29163 8.87095 2.45413ZM6.57095 1.14163C5.86678 0.854129 5.06678 0.754129 4.23345 0.904129C2.53761 1.2083 1.18345 2.57496 0.895945 4.2708C0.781966 4.91689 0.822009 5.58075 1.01282 6.20846C1.20363 6.83616 1.53983 7.41 1.9941 7.88335C2.44837 8.3567 3.0079 8.71621 3.62723 8.93267C4.24656 9.14914 4.90822 9.21644 5.55845 9.12913C7.20845 8.91663 8.59178 7.68746 9.02511 6.0833C9.19178 5.4708 9.20845 4.87913 9.11261 4.32496C9.05845 3.99163 8.64595 3.86246 8.40428 4.09996C8.30845 4.1958 8.26678 4.33746 8.29178 4.4708C8.38345 5.02496 8.34178 5.61663 8.07511 6.2458C7.59178 7.37496 6.54178 8.20413 5.32095 8.31663C3.19595 8.51246 1.43345 6.71246 1.69595 4.57496C1.87511 3.09996 3.06261 1.89996 4.53345 1.6958C5.25428 1.5958 5.93761 1.7333 6.52095 2.0333C6.6193 2.08468 6.73403 2.09489 6.83991 2.06168C6.94579 2.02847 7.03414 1.95456 7.08553 1.85621C7.13691 1.75786 7.14713 1.64313 7.11392 1.53725C7.08071 1.43137 7.0068 1.34301 6.90845 1.29163C6.79595 1.24163 6.68345 1.18746 6.57095 1.14163Z" fill="url(#paint0_linear_991_514)"/>
</g>
<defs>
<linearGradient id="paint0_linear_991_514" x1="7.44465" y1="0.834978" x2="3.06696" y2="8.64283" gradientUnits="userSpaceOnUse">
<stop stop-color="#16C062"/>
<stop offset="1" stop-color="#3EACFC"/>
</linearGradient>
<clipPath id="clip0_991_514">
<rect width="10" height="10" fill="white"/>
</clipPath>
</defs>
</svg>
