<svg width="126" height="52" viewBox="0 0 126 52" fill="none" xmlns="http://www.w3.org/2000/svg">
<path d="M35.8865 9.56931L45.9532 31.9366L50.7658 22.8714C51.0447 22.3861 51.0762 21.8019 50.8511 21.2908L42.0246 1.12515C41.6968 0.380851 40.8241 -0.0988595 40.0019 0.0173043L17.6782 3.1713C16.5811 3.31813 15.2046 3.98916 14.5164 4.88388L8.55151 13.3837L35.8865 9.56931Z" fill="url(#paint0_linear_138_229)"/>
<path d="M33.6651 34.3894L29.004 25.2907L34.5867 15.5207L43.9172 35.8813C44.2489 36.624 43.7398 37.7439 43.0898 38.2483L25.9875 51.6106C25.5412 51.957 24.9549 52.0814 24.4013 51.947L14.3124 49.131L33.6651 34.3894Z" fill="url(#paint1_linear_138_229)"/>
<path d="M15.5021 24.5238L25.7972 23.5489L31.3799 13.7788L8.80551 16.8095L8.80485 16.8096C7.57089 17.0224 7.57049 17.0224 5.96486 17.2461L0 26.1932L6.42369 25.5222L4.52351 39.9519C4.45629 40.5043 4.65638 41.0557 5.06492 41.444L12.8304 48.3262L15.5021 24.5238Z" fill="url(#paint2_linear_138_229)"/>
<path d="M101.22 4.47777H82.6756V51.2777H77.5447V4.47777H59V0H101.22V4.47777Z" fill="url(#paint3_linear_138_229)"/>
<path d="M107.162 52C104.377 52 101.811 51.4944 99.4657 50.4833C97.1201 49.4241 95.0922 48.0037 93.3819 46.2222C91.6716 44.3926 90.3277 42.2982 89.3504 39.9389C88.422 37.5797 87.9577 35.0519 87.9577 32.3556C87.9577 29.7074 88.422 27.2278 89.3504 24.9167C90.3277 22.5575 91.6716 20.5112 93.3819 18.7778C95.0922 16.9964 97.0957 15.6001 99.3924 14.589C101.738 13.5297 104.303 13.0001 107.089 13.0001C109.874 13.0001 112.415 13.5297 114.712 14.589C117.058 15.6001 119.061 16.9964 120.722 18.7778C122.384 20.5593 123.679 22.6056 124.607 24.9167C125.536 27.2278 126 29.6834 126 32.2834C126 32.6686 125.976 33.0537 125.927 33.4389C125.927 33.8241 125.902 34.0889 125.853 34.2334H93.2353C93.3819 36.2556 93.8461 38.1334 94.628 39.8667C95.4587 41.5519 96.4849 43.0204 97.7065 44.2722C98.977 45.5241 100.419 46.5111 102.031 47.2333C103.693 47.9074 105.452 48.2444 107.309 48.2444C108.579 48.2444 109.825 48.0759 111.047 47.7389C112.269 47.4019 113.393 46.9445 114.419 46.3667C115.445 45.7889 116.349 45.0908 117.131 44.2722C117.962 43.4056 118.597 42.4667 119.037 41.4556L123.361 42.6111C122.775 44.0074 121.944 45.2833 120.869 46.4389C119.794 47.5463 118.548 48.5333 117.131 49.4C115.714 50.2185 114.15 50.8444 112.44 51.2778C110.729 51.7593 108.97 52 107.162 52ZM121.236 30.4778C121.089 28.4556 120.6 26.626 119.77 24.9889C118.988 23.3038 117.962 21.8593 116.691 20.6556C115.469 19.4519 114.028 18.513 112.366 17.8389C110.705 17.1649 108.946 16.8278 107.089 16.8278C105.232 16.8278 103.473 17.1649 101.811 17.8389C100.15 18.513 98.6838 19.4519 97.4133 20.6556C96.1917 21.8593 95.1899 23.3038 94.4081 24.9889C93.6751 26.6741 93.2353 28.5037 93.0887 30.4778H121.236Z" fill="url(#paint4_linear_138_229)"/>
<path d="M114.124 10.749H111.887V4.84465C111.887 3.85052 111.724 3.13179 111.398 2.68846C111.073 2.2317 110.605 2.00332 109.995 2.00332C109.67 2.00332 109.337 2.06377 108.998 2.18468C108.673 2.30559 108.368 2.48023 108.083 2.70861C107.798 2.92356 107.541 3.18553 107.31 3.49451C107.093 3.79006 106.924 4.1192 106.802 4.48192V10.749H104.565V0.209859H106.598V2.32574C107.005 1.61373 107.595 1.05621 108.368 0.653185C109.141 0.236727 109.995 0.0284975 110.931 0.0284975C111.568 0.0284975 112.09 0.142688 112.497 0.371068C112.917 0.599449 113.243 0.915152 113.473 1.31818C113.717 1.70777 113.887 2.16453 113.981 2.68846C114.076 3.19896 114.124 3.74305 114.124 4.32071V10.749Z" fill="url(#paint5_linear_138_229)"/>
<path d="M117.82 0.210813L120.424 3.81789L120.607 4.16046L120.79 3.81789L123.393 0.210813H125.712L121.827 5.49044L125.753 10.7499H123.414L120.79 7.163L120.607 6.84058L120.444 7.163L117.8 10.7499H115.461L119.387 5.49044L115.502 0.210813H117.82Z" fill="url(#paint6_linear_138_229)"/>
<defs>
<linearGradient id="paint0_linear_138_229" x1="40.4402" y1="0.00087149" x2="12.8305" y2="48.2551" gradientUnits="userSpaceOnUse">
<stop stop-color="#16C062"/>
<stop offset="1" stop-color="#3EACFC"/>
</linearGradient>
<linearGradient id="paint1_linear_138_229" x1="40.4402" y1="0.00087149" x2="12.8305" y2="48.2551" gradientUnits="userSpaceOnUse">
<stop stop-color="#16C062"/>
<stop offset="1" stop-color="#3EACFC"/>
</linearGradient>
<linearGradient id="paint2_linear_138_229" x1="40.4402" y1="0.00087149" x2="12.8305" y2="48.2551" gradientUnits="userSpaceOnUse">
<stop stop-color="#16C062"/>
<stop offset="1" stop-color="#3EACFC"/>
</linearGradient>
<linearGradient id="paint3_linear_138_229" x1="126.176" y1="-1.1199e-06" x2="59.8807" y2="53.0995" gradientUnits="userSpaceOnUse">
<stop stop-color="#16C062"/>
<stop offset="1" stop-color="#3EACFC"/>
</linearGradient>
<linearGradient id="paint4_linear_138_229" x1="126.176" y1="-1.1199e-06" x2="59.8807" y2="53.0995" gradientUnits="userSpaceOnUse">
<stop stop-color="#16C062"/>
<stop offset="1" stop-color="#3EACFC"/>
</linearGradient>
<linearGradient id="paint5_linear_138_229" x1="126.176" y1="-1.1199e-06" x2="59.8807" y2="53.0995" gradientUnits="userSpaceOnUse">
<stop stop-color="#16C062"/>
<stop offset="1" stop-color="#3EACFC"/>
</linearGradient>
<linearGradient id="paint6_linear_138_229" x1="126.176" y1="-1.1199e-06" x2="59.8807" y2="53.0995" gradientUnits="userSpaceOnUse">
<stop stop-color="#16C062"/>
<stop offset="1" stop-color="#3EACFC"/>
</linearGradient>
</defs>
</svg>
