<svg width="37" height="36" viewBox="0 0 37 36" fill="none" xmlns="http://www.w3.org/2000/svg">
<path d="M19.3691 14.9698C19.1242 14.9472 18.8786 14.9346 18.6328 14.9321C13.757 14.9321 9.80656 18.8899 9.80656 23.7735C9.80656 25.2304 10.1649 26.6001 10.7876 27.8111C10.463 26.8255 10.2972 25.7945 10.2965 24.7568C10.2965 19.5789 14.2964 15.3467 19.3691 14.9698ZM22.1748 31.0157C21.3127 31.5927 20.3662 32.0322 19.3691 32.3184C20.762 32.1471 22.0951 31.6503 23.2604 30.8683C27.3121 28.1447 28.4118 22.7121 25.7169 18.7307C25.5795 18.5318 25.4337 18.3388 25.2798 18.1524C27.77 22.5023 26.4695 28.1284 22.1748 31.0157Z" fill="url(#paint0_linear_138_823)"/>
<path d="M25.619 14.9169V10.0243C25.619 9.81956 25.5071 9.64744 25.349 9.54056L30.875 1.125H20.2798L18.5 3.79462L16.7203 1.125H6.125L11.6499 9.54C11.4918 9.64687 11.3799 9.81956 11.3799 10.0243V14.9169C8.85931 16.9802 7.25 20.1139 7.25 23.625C7.25 29.8378 12.2872 34.875 18.5 34.875C18.8836 34.875 19.262 34.8559 19.6351 34.8176C25.3147 34.2489 29.75 29.4553 29.75 23.625C29.75 20.1139 28.1396 16.9802 25.619 14.9169ZM23.4646 1.6875H27.0241L22.0595 9.13444L20.2798 6.46481L23.4646 1.6875ZM23.8393 11.8041L24.3866 10.9839C24.4166 11.0548 24.4319 11.1306 24.4327 11.2112V13.5844C24.431 13.7325 24.371 13.874 24.2656 13.9781C22.5781 12.9668 20.6105 12.375 18.5 12.375C16.4677 12.3753 14.474 12.9298 12.7332 13.9787C12.6277 13.8744 12.5677 13.7327 12.5662 13.5844V11.2112C12.5662 11.1307 12.5836 11.0537 12.6123 10.9839L13.1596 11.8046L23.8393 11.8041ZM9.97588 1.6875H13.5354L19.9051 11.2416H16.3456L9.97588 1.6875ZM18.5 33.1875C13.2187 33.1875 8.9375 28.9063 8.9375 23.625C8.9375 18.3437 13.2187 14.0625 18.5 14.0625C23.7802 14.0625 28.0625 18.3442 28.0625 23.625C28.0625 28.9058 23.7802 33.1875 18.5 33.1875Z" fill="url(#paint1_linear_138_823)"/>
<path d="M19.7566 27.6789V17.4375H17.5944C17.5945 17.6617 17.5504 17.8836 17.4646 18.0908C17.3789 18.2979 17.2532 18.4861 17.0947 18.6446C16.9362 18.8032 16.7481 18.9289 16.541 19.0147C16.3339 19.1005 16.1119 19.1447 15.8878 19.1447V21.2782C16.0419 21.2782 17.2068 21.1905 17.5944 21.0352V27.6789H15.8878V29.8125H21.4633V27.6789H19.7566Z" fill="url(#paint2_linear_138_823)"/>
<defs>
<linearGradient id="paint0_linear_138_823" x1="23.5927" y1="14.9324" x2="14.4528" y2="31.2192" gradientUnits="userSpaceOnUse">
<stop stop-color="#16C062"/>
<stop offset="1" stop-color="#3EACFC"/>
</linearGradient>
<linearGradient id="paint1_linear_138_823" x1="25.7504" y1="1.12557" x2="5.6869" y2="27.3444" gradientUnits="userSpaceOnUse">
<stop stop-color="#16C062"/>
<stop offset="1" stop-color="#3EACFC"/>
</linearGradient>
<linearGradient id="paint2_linear_138_823" x1="20.3088" y1="17.4377" x2="12.8674" y2="23.4122" gradientUnits="userSpaceOnUse">
<stop stop-color="#16C062"/>
<stop offset="1" stop-color="#3EACFC"/>
</linearGradient>
</defs>
</svg>
