<svg width="400" height="400" viewBox="0 0 400 400" fill="none" xmlns="http://www.w3.org/2000/svg">
<g opacity="0.12">
<path d="M281.462 73.61L360.417 245.666L398.163 175.934C400.35 172.201 400.597 167.707 398.832 163.775L329.604 8.65496C327.034 2.92963 320.189 -0.760458 313.74 0.13311L138.653 24.3946C130.048 25.5241 119.252 30.6859 113.854 37.5683L67.0711 102.951L281.462 73.61Z" fill="url(#paint0_linear_656_18)"/>
<path d="M264.04 264.534L227.482 194.544L271.268 119.39L344.448 276.01C347.049 281.723 343.056 290.338 337.958 294.218L203.824 397.004C200.323 399.669 195.725 400.626 191.382 399.592L112.254 377.931L264.04 264.534Z" fill="url(#paint1_linear_656_18)"/>
<path d="M121.585 188.644L202.331 181.145L246.117 105.991L69.0633 129.304L69.0581 129.305C59.38 130.941 59.377 130.942 46.7838 132.662L0.000732422 201.486L50.3825 196.324L35.4792 307.322C34.9519 311.571 36.5213 315.813 39.7255 318.8L100.631 371.74L121.585 188.644Z" fill="url(#paint2_linear_656_18)"/>
</g>
<defs>
<linearGradient id="paint0_linear_656_18" x1="317.178" y1="0.00670377" x2="106.903" y2="374.713" gradientUnits="userSpaceOnUse">
<stop stop-color="#16C062"/>
<stop offset="1" stop-color="#3EACFC"/>
</linearGradient>
<linearGradient id="paint1_linear_656_18" x1="317.178" y1="0.00670377" x2="106.903" y2="374.713" gradientUnits="userSpaceOnUse">
<stop stop-color="#16C062"/>
<stop offset="1" stop-color="#3EACFC"/>
</linearGradient>
<linearGradient id="paint2_linear_656_18" x1="317.178" y1="0.00670377" x2="106.903" y2="374.713" gradientUnits="userSpaceOnUse">
<stop stop-color="#16C062"/>
<stop offset="1" stop-color="#3EACFC"/>
</linearGradient>
</defs>
</svg>
