<svg width="6" height="4" viewBox="0 0 6 4" fill="none" xmlns="http://www.w3.org/2000/svg">
<path d="M3.18692 3.15704L5.9287 0.413225C5.97447 0.367444 6 0.306619 6 0.243368C6 0.180117 5.97447 0.119293 5.9287 0.0735109L5.9256 0.0705566C5.90341 0.0482857 5.8767 0.0305517 5.8471 0.0184333C5.81749 0.00631501 5.78561 6.5822e-05 5.7534 6.58248e-05C5.72118 6.58276e-05 5.6893 0.00631502 5.6597 0.0184334C5.63009 0.0305517 5.60339 0.0482858 5.5812 0.0705567L2.99948 2.65436L0.418803 0.0705571C0.396615 0.0482862 0.369906 0.0305522 0.340303 0.0184338C0.310699 0.00631548 0.27882 6.62977e-05 0.246603 6.63005e-05C0.214387 6.63033e-05 0.182508 0.0063155 0.152904 0.0184338C0.123301 0.0305522 0.0965921 0.0482862 0.074403 0.0705572L0.071305 0.0735114C0.0255339 0.119293 2.06684e-07 0.180117 2.1228e-07 0.243368C2.17877e-07 0.30662 0.0255339 0.367444 0.071305 0.413226L2.81308 3.15704C2.8372 3.18117 2.8662 3.20038 2.89833 3.2135C2.93046 3.22663 2.96505 3.2334 3 3.2334C3.03496 3.2334 3.06955 3.22663 3.10168 3.2135C3.13381 3.20038 3.1628 3.18117 3.18692 3.15704Z" fill="url(#paint0_linear_1387_4077)"/>
<defs>
<linearGradient id="paint0_linear_1387_4077" x1="1.24233" y1="3.23334" x2="2.34581" y2="-0.41566" gradientUnits="userSpaceOnUse">
<stop stop-color="#16C062"/>
<stop offset="1" stop-color="#3EACFC"/>
</linearGradient>
</defs>
</svg>
