<svg width="24" height="25" viewBox="0 0 24 25" fill="none" xmlns="http://www.w3.org/2000/svg">
<g clip-path="url(#clip0_138_339)">
<path d="M12 24.5C18.6274 24.5 24 19.1274 24 12.5C24 5.87258 18.6274 0.5 12 0.5C5.37258 0.5 0 5.87258 0 12.5C0 19.1274 5.37258 24.5 12 24.5Z" fill="#FF4500"/>
<path d="M19.9828 12.6144C19.9828 11.6416 19.1962 10.869 18.2375 10.869C17.7846 10.8684 17.349 11.0427 17.0215 11.3555C15.8198 10.497 14.1745 9.93921 12.3434 9.86768L13.1444 6.11946L15.7481 6.67727C15.7769 7.3354 16.3204 7.8648 16.9929 7.8648C17.6796 7.8648 18.2375 7.30699 18.2375 6.61999C18.2375 5.93336 17.6797 5.37546 16.9929 5.37546C16.5066 5.37546 16.0772 5.66158 15.8769 6.07652L12.9729 5.46133C12.8871 5.4469 12.8012 5.46133 12.7439 5.50427C12.6724 5.54721 12.6295 5.61865 12.6154 5.70452L11.7281 9.88183C9.86841 9.93921 8.1945 10.497 6.97856 11.3698C6.65106 11.057 6.21541 10.8828 5.76253 10.8835C4.78969 10.8835 4.01719 11.6701 4.01719 12.6288C4.01719 13.344 4.44628 13.9448 5.04731 14.2168C5.01813 14.3917 5.00376 14.5688 5.00438 14.7461C5.00438 17.4355 8.1375 19.6245 12.0001 19.6245C15.8628 19.6245 18.9959 17.4499 18.9959 14.7461C18.9959 14.5688 18.9816 14.3918 18.953 14.2168C19.5537 13.9448 19.9828 13.3296 19.9828 12.6144ZM7.99425 13.8589C7.99425 13.1723 8.55206 12.6144 9.23906 12.6144C9.92569 12.6144 10.4836 13.1722 10.4836 13.8589C10.4836 14.5456 9.92578 15.1037 9.23906 15.1037C8.55216 15.1178 7.99425 14.5456 7.99425 13.8589ZM14.9615 17.1637C14.1031 18.0221 12.4721 18.0794 12.0001 18.0794C11.5137 18.0794 9.88285 18.0077 9.03853 17.1637C8.91 17.035 8.91 16.8346 9.03853 16.7059C9.16735 16.5774 9.36759 16.5774 9.49641 16.7059C10.0402 17.2496 11.1847 17.4355 12.0001 17.4355C12.8155 17.4355 13.9743 17.2496 14.5036 16.7059C14.6324 16.5774 14.8327 16.5774 14.9615 16.7059C15.0758 16.8346 15.0758 17.035 14.9615 17.1637ZM14.7324 15.1179C14.0457 15.1179 13.4879 14.5601 13.4879 13.8733C13.4879 13.1866 14.0457 12.6288 14.7324 12.6288C15.4193 12.6288 15.9772 13.1866 15.9772 13.8733C15.9772 14.5455 15.4193 15.1179 14.7324 15.1179Z" fill="white"/>
</g>
<defs>
<clipPath id="clip0_138_339">
<rect width="24" height="24" fill="white" transform="translate(0 0.5)"/>
</clipPath>
</defs>
</svg>
