<svg width="20" height="20" viewBox="0 0 20 20" fill="none" xmlns="http://www.w3.org/2000/svg">
<path d="M17.7417 4.90826L9.40833 13.2416C9.33124 13.3188 9.23966 13.3801 9.13885 13.422C9.03804 13.4638 8.92997 13.4853 8.82083 13.4853C8.71169 13.4853 8.60362 13.4638 8.50281 13.422C8.402 13.3801 8.31043 13.3188 8.23333 13.2416L5.875 10.8833C5.79785 10.8061 5.73665 10.7145 5.69489 10.6137C5.65314 10.5129 5.63165 10.4049 5.63165 10.2958C5.63165 10.1866 5.65314 10.0786 5.69489 9.97781C5.73665 9.877 5.79785 9.78541 5.875 9.70826C5.95215 9.63111 6.04374 9.56991 6.14455 9.52815C6.24535 9.4864 6.35339 9.46491 6.4625 9.46491C6.57161 9.46491 6.67965 9.4864 6.78045 9.52815C6.88126 9.56991 6.97285 9.63111 7.05 9.70826L8.81667 11.4749L16.5583 3.73326C16.6354 3.65601 16.727 3.59472 16.8278 3.5529C16.9286 3.51108 17.0367 3.48955 17.1458 3.48955C17.255 3.48955 17.363 3.51108 17.4639 3.5529C17.5647 3.59472 17.6562 3.65601 17.7333 3.73326C18.0667 4.05826 18.0667 4.58326 17.7417 4.90826ZM13.1417 2.28326C11.7333 1.70826 10.1333 1.50826 8.46667 1.80826C5.075 2.41659 2.36667 5.14992 1.79167 8.54159C1.56371 9.83377 1.64379 11.1615 2.02542 12.4169C2.40704 13.6723 3.07944 14.82 3.98798 15.7667C4.89652 16.7134 6.01558 17.4324 7.25424 17.8653C8.49289 18.2983 9.81621 18.4329 11.1167 18.2583C14.4167 17.8333 17.1833 15.3749 18.05 12.1666C18.3833 10.9416 18.4167 9.75826 18.225 8.64993C18.1167 7.98326 17.2917 7.72492 16.8083 8.19992C16.6167 8.39159 16.5333 8.67492 16.5833 8.94159C16.7667 10.0499 16.6833 11.2333 16.15 12.4916C15.1833 14.7499 13.0833 16.4083 10.6417 16.6333C6.39167 17.0249 2.86667 13.4249 3.39167 9.14992C3.75 6.19992 6.125 3.79992 9.06667 3.39159C10.5083 3.19159 11.875 3.46659 13.0417 4.06659C13.2384 4.16936 13.4678 4.18979 13.6796 4.12337C13.8914 4.05695 14.0681 3.90913 14.1708 3.71242C14.2736 3.51572 14.294 3.28625 14.2276 3.07449C14.1612 2.86273 14.0134 2.68603 13.8167 2.58326C13.5917 2.48326 13.3667 2.37492 13.1417 2.28326Z" fill="white"/>
</svg>
