<svg width="24" height="25" viewBox="0 0 24 25" fill="none" xmlns="http://www.w3.org/2000/svg">
<g clip-path="url(#clip0_138_365)">
<path d="M12 0.5C8.81808 0.5 5.7637 1.76506 3.51558 4.01469C1.26515 6.26522 0.00059819 9.31734 -4.57764e-05 12.5C-4.57764e-05 15.6813 1.26558 18.7357 3.51558 20.9853C5.7637 23.2349 8.81808 24.5 12 24.5C15.1818 24.5 18.2362 23.2349 20.4843 20.9853C22.7343 18.7357 24 15.6813 24 12.5C24 9.31869 22.7343 6.26431 20.4843 4.01469C18.2362 1.76506 15.1818 0.5 12 0.5Z" fill="url(#paint0_linear_138_365)"/>
<path d="M5.43183 12.3732C8.93058 10.8492 11.2631 9.84448 12.4293 9.35898C15.7631 7.97279 16.455 7.73204 16.9068 7.72389C17.0062 7.72229 17.2275 7.74686 17.3718 7.86357C17.4918 7.96201 17.5256 8.09514 17.5425 8.18861C17.5575 8.28198 17.5781 8.49479 17.5612 8.66092C17.3812 10.5584 16.5993 15.163 16.2018 17.2884C16.035 18.1876 15.7031 18.4891 15.3825 18.5185C14.685 18.5827 14.1562 18.058 13.4812 17.6157C12.4256 16.9233 11.8293 16.4924 10.8037 15.8169C9.6187 15.0361 10.3875 14.6069 11.0625 13.9057C11.2387 13.7221 14.31 10.9293 14.3681 10.676C14.3756 10.6443 14.3831 10.5262 14.3118 10.4639C14.2425 10.4015 14.1393 10.4229 14.0643 10.4397C13.9575 10.4637 12.2718 11.579 9.00183 13.7853C8.5237 14.1142 8.09058 14.2745 7.70058 14.266C7.27308 14.2569 6.44808 14.0238 5.83495 13.8247C5.08495 13.5804 4.48683 13.4512 4.53933 13.0362C4.56558 12.8202 4.8637 12.5992 5.43183 12.3732Z" fill="white"/>
</g>
<defs>
<linearGradient id="paint0_linear_138_365" x1="1200" y1="0.5" x2="1200" y2="2400.5" gradientUnits="userSpaceOnUse">
<stop stop-color="#2AABEE"/>
<stop offset="1" stop-color="#229ED9"/>
</linearGradient>
<clipPath id="clip0_138_365">
<rect width="24" height="24" fill="white" transform="translate(-4.57764e-05 0.5)"/>
</clipPath>
</defs>
</svg>
