<svg width="82" height="79" viewBox="0 0 82 79" fill="none" xmlns="http://www.w3.org/2000/svg">
<g clip-path="url(#clip0_656_772)">
</g>
<rect x="5.46526" y="2.56348" width="75.7448" height="75.9364" rx="37.8724" stroke="url(#paint0_linear_656_772)"/>
<rect x="0.906738" y="0.499512" width="75.7448" height="75.9364" rx="37.8724" fill="url(#paint1_linear_656_772)"/>
<rect x="0.906738" y="0.499512" width="75.7448" height="75.9364" rx="37.8724" stroke="url(#paint2_linear_656_772)"/>
<path d="M48.9511 22.669L58.8204 44.176L63.5387 35.4595C63.8121 34.9928 63.843 34.4312 63.6223 33.9397L54.9689 14.5496C54.6475 13.834 53.7919 13.3727 52.9859 13.4844L31.0999 16.5171C30.0243 16.6583 28.6747 17.3035 28 18.1638L22.1521 26.3367L48.9511 22.669Z" fill="url(#paint3_linear_656_772)"/>
<path d="M46.7733 46.5345L42.2035 37.7858L47.6768 28.3915L56.8243 47.969C57.1495 48.6831 56.6504 49.76 56.0131 50.245L39.2462 63.0933C38.8086 63.4264 38.2339 63.546 37.6911 63.4168L27.8 60.7091L46.7733 46.5345Z" fill="url(#paint4_linear_656_772)"/>
<path d="M28.9664 37.0483L39.0597 36.1109L44.5329 26.7167L22.4011 29.6308L22.4005 29.6309C21.1907 29.8354 21.1903 29.8355 19.6162 30.0505L13.7683 38.6535L20.066 38.0083L18.2031 51.8831C18.1372 52.4142 18.3333 52.9445 18.7339 53.3178L26.3471 59.9352L28.9664 37.0483Z" fill="url(#paint5_linear_656_772)"/>
<defs>
<linearGradient id="paint0_linear_656_772" x1="65.8197" y1="2.06477" x2="25.3229" y2="74.05" gradientUnits="userSpaceOnUse">
<stop stop-color="#16C062"/>
<stop offset="1" stop-color="#3EACFC"/>
</linearGradient>
<linearGradient id="paint1_linear_656_772" x1="0.406739" y1="16.8745" x2="79.0631" y2="27.4408" gradientUnits="userSpaceOnUse">
<stop stop-color="#0F1B3B"/>
<stop offset="1" stop-color="#232938"/>
</linearGradient>
<linearGradient id="paint2_linear_656_772" x1="61.2612" y1="0.000801128" x2="20.7644" y2="71.9861" gradientUnits="userSpaceOnUse">
<stop stop-color="#16C062"/>
<stop offset="1" stop-color="#3EACFC"/>
</linearGradient>
<linearGradient id="paint3_linear_656_772" x1="53.4155" y1="13.4686" x2="27.1313" y2="60.307" gradientUnits="userSpaceOnUse">
<stop stop-color="#16C062"/>
<stop offset="1" stop-color="#3EACFC"/>
</linearGradient>
<linearGradient id="paint4_linear_656_772" x1="53.4155" y1="13.4686" x2="27.1313" y2="60.307" gradientUnits="userSpaceOnUse">
<stop stop-color="#16C062"/>
<stop offset="1" stop-color="#3EACFC"/>
</linearGradient>
<linearGradient id="paint5_linear_656_772" x1="53.4155" y1="13.4686" x2="27.1313" y2="60.307" gradientUnits="userSpaceOnUse">
<stop stop-color="#16C062"/>
<stop offset="1" stop-color="#3EACFC"/>
</linearGradient>
<clipPath id="clip0_656_772">
<rect x="4.96526" y="2.06348" width="76.7448" height="76.9364" rx="38.3724" fill="white"/>
</clipPath>
</defs>
</svg>
