<svg width="283" height="244" viewBox="0 0 283 244" fill="none" xmlns="http://www.w3.org/2000/svg">
<g clip-path="url(#clip0_138_202)">
</g>
<rect x="168.633" y="112.596" width="113.617" height="113.905" rx="56.8086" stroke="url(#paint0_linear_138_202)" stroke-width="1.5"/>
<rect x="161.795" y="109.5" width="113.617" height="113.905" rx="56.8086" fill="url(#paint1_linear_138_202)"/>
<rect x="161.795" y="109.5" width="113.617" height="113.905" rx="56.8086" stroke="url(#paint2_linear_138_202)" stroke-width="1.5"/>
<path d="M233.862 142.754L248.666 175.015L255.743 161.94C256.153 161.24 256.2 160.397 255.869 159.66L242.889 130.575C242.407 129.502 241.123 128.81 239.914 128.977L207.085 133.526C205.472 133.738 203.447 134.706 202.435 135.996L193.663 148.256L233.862 142.754Z" fill="url(#paint3_linear_138_202)"/>
<path d="M230.595 178.552L223.741 165.429L231.95 151.338L245.672 180.704C246.159 181.775 245.411 183.391 244.455 184.118L219.305 203.391C218.648 203.89 217.786 204.07 216.972 203.876L202.135 199.814L230.595 178.552Z" fill="url(#paint4_linear_138_202)"/>
<path d="M203.885 164.323L219.025 162.917L227.235 148.826L194.037 153.197L194.036 153.197C192.221 153.504 192.221 153.504 189.859 153.826L181.088 166.731L190.534 165.763L187.74 186.575C187.641 187.372 187.935 188.167 188.536 188.727L199.956 198.653L203.885 164.323Z" fill="url(#paint5_linear_138_202)"/>
<g clip-path="url(#clip1_138_202)">
</g>
<rect x="91.6379" y="2.56396" width="75.7448" height="75.9364" rx="37.8724" stroke="url(#paint6_linear_138_202)"/>
<rect x="87.0793" y="0.5" width="75.7448" height="75.9364" rx="37.8724" fill="url(#paint7_linear_138_202)"/>
<rect x="87.0793" y="0.5" width="75.7448" height="75.9364" rx="37.8724" stroke="url(#paint8_linear_138_202)"/>
<path d="M135.124 22.6694L144.993 44.1764L149.711 35.4598C149.985 34.9932 150.016 34.4315 149.795 33.9401L141.142 14.55C140.82 13.8343 139.965 13.3731 139.159 13.4848L117.273 16.5175C116.197 16.6586 114.847 17.3039 114.173 18.1642L108.325 26.337L135.124 22.6694Z" fill="url(#paint9_linear_138_202)"/>
<path d="M132.946 46.5349L128.376 37.7861L133.849 28.3919L142.997 47.9694C143.322 48.6835 142.823 49.7603 142.186 50.2454L125.419 63.0937C124.981 63.4268 124.407 63.5464 123.864 63.4172L113.973 60.7095L132.946 46.5349Z" fill="url(#paint10_linear_138_202)"/>
<path d="M115.139 37.0487L125.232 36.1113L130.706 26.717L108.574 29.6311L108.573 29.6313C107.363 29.8358 107.363 29.8358 105.789 30.0509L99.9409 38.6539L106.239 38.0087L104.376 51.8834C104.31 52.4146 104.506 52.9448 104.907 53.3182L112.52 59.9356L115.139 37.0487Z" fill="url(#paint11_linear_138_202)"/>
<g clip-path="url(#clip2_138_202)">
</g>
<rect x="5.05835" y="167.564" width="75.7448" height="75.9364" rx="37.8724" stroke="url(#paint12_linear_138_202)"/>
<rect x="0.5" y="165.5" width="75.7448" height="75.9364" rx="37.8724" fill="url(#paint13_linear_138_202)"/>
<rect x="0.5" y="165.5" width="75.7448" height="75.9364" rx="37.8724" stroke="url(#paint14_linear_138_202)"/>
<path d="M48.5444 187.669L58.4137 209.176L63.132 200.46C63.4054 199.993 63.4363 199.432 63.2156 198.94L54.5622 179.55C54.2408 178.834 53.3852 178.373 52.5792 178.485L30.6932 181.517C29.6176 181.659 28.2681 182.304 27.5933 183.164L21.7454 191.337L48.5444 187.669Z" fill="url(#paint15_linear_138_202)"/>
<path d="M46.3666 211.535L41.7969 202.786L47.2701 193.392L56.4176 212.969C56.7428 213.684 56.2437 214.76 55.6064 215.245L38.8396 228.094C38.4019 228.427 37.8272 228.546 37.2844 228.417L27.3933 225.709L46.3666 211.535Z" fill="url(#paint16_linear_138_202)"/>
<path d="M28.5597 202.049L38.653 201.111L44.1262 191.717L21.9944 194.631L21.9938 194.631C20.784 194.836 20.7836 194.836 19.2095 195.051L13.3616 203.654L19.6593 203.009L17.7964 216.883C17.7305 217.415 17.9267 217.945 18.3272 218.318L25.9404 224.936L28.5597 202.049Z" fill="url(#paint17_linear_138_202)"/>
<defs>
<linearGradient id="paint0_linear_138_202" x1="259.165" y1="111.848" x2="198.419" y2="219.826" gradientUnits="userSpaceOnUse">
<stop stop-color="#16C062"/>
<stop offset="1" stop-color="#3EACFC"/>
</linearGradient>
<linearGradient id="paint1_linear_138_202" x1="161.045" y1="134.063" x2="279.03" y2="149.912" gradientUnits="userSpaceOnUse">
<stop stop-color="#0F1B3B"/>
<stop offset="1" stop-color="#232938"/>
</linearGradient>
<linearGradient id="paint2_linear_138_202" x1="252.327" y1="108.752" x2="191.582" y2="216.73" gradientUnits="userSpaceOnUse">
<stop stop-color="#16C062"/>
<stop offset="1" stop-color="#3EACFC"/>
</linearGradient>
<linearGradient id="paint3_linear_138_202" x1="240.559" y1="128.954" x2="201.132" y2="199.211" gradientUnits="userSpaceOnUse">
<stop stop-color="#16C062"/>
<stop offset="1" stop-color="#3EACFC"/>
</linearGradient>
<linearGradient id="paint4_linear_138_202" x1="240.559" y1="128.954" x2="201.132" y2="199.211" gradientUnits="userSpaceOnUse">
<stop stop-color="#16C062"/>
<stop offset="1" stop-color="#3EACFC"/>
</linearGradient>
<linearGradient id="paint5_linear_138_202" x1="240.559" y1="128.954" x2="201.132" y2="199.211" gradientUnits="userSpaceOnUse">
<stop stop-color="#16C062"/>
<stop offset="1" stop-color="#3EACFC"/>
</linearGradient>
<linearGradient id="paint6_linear_138_202" x1="151.992" y1="2.06525" x2="111.496" y2="74.0505" gradientUnits="userSpaceOnUse">
<stop stop-color="#16C062"/>
<stop offset="1" stop-color="#3EACFC"/>
</linearGradient>
<linearGradient id="paint7_linear_138_202" x1="86.5793" y1="16.875" x2="165.236" y2="27.4412" gradientUnits="userSpaceOnUse">
<stop stop-color="#0F1B3B"/>
<stop offset="1" stop-color="#232938"/>
</linearGradient>
<linearGradient id="paint8_linear_138_202" x1="147.434" y1="0.00128941" x2="106.937" y2="71.9866" gradientUnits="userSpaceOnUse">
<stop stop-color="#16C062"/>
<stop offset="1" stop-color="#3EACFC"/>
</linearGradient>
<linearGradient id="paint9_linear_138_202" x1="139.588" y1="13.469" x2="113.304" y2="60.3073" gradientUnits="userSpaceOnUse">
<stop stop-color="#16C062"/>
<stop offset="1" stop-color="#3EACFC"/>
</linearGradient>
<linearGradient id="paint10_linear_138_202" x1="139.588" y1="13.469" x2="113.304" y2="60.3073" gradientUnits="userSpaceOnUse">
<stop stop-color="#16C062"/>
<stop offset="1" stop-color="#3EACFC"/>
</linearGradient>
<linearGradient id="paint11_linear_138_202" x1="139.588" y1="13.469" x2="113.304" y2="60.3073" gradientUnits="userSpaceOnUse">
<stop stop-color="#16C062"/>
<stop offset="1" stop-color="#3EACFC"/>
</linearGradient>
<linearGradient id="paint12_linear_138_202" x1="65.4128" y1="167.065" x2="24.916" y2="239.051" gradientUnits="userSpaceOnUse">
<stop stop-color="#16C062"/>
<stop offset="1" stop-color="#3EACFC"/>
</linearGradient>
<linearGradient id="paint13_linear_138_202" x1="2.45225e-07" y1="181.875" x2="78.6563" y2="192.441" gradientUnits="userSpaceOnUse">
<stop stop-color="#0F1B3B"/>
<stop offset="1" stop-color="#232938"/>
</linearGradient>
<linearGradient id="paint14_linear_138_202" x1="60.8545" y1="165.001" x2="20.3577" y2="236.987" gradientUnits="userSpaceOnUse">
<stop stop-color="#16C062"/>
<stop offset="1" stop-color="#3EACFC"/>
</linearGradient>
<linearGradient id="paint15_linear_138_202" x1="53.0089" y1="178.469" x2="26.7246" y2="225.307" gradientUnits="userSpaceOnUse">
<stop stop-color="#16C062"/>
<stop offset="1" stop-color="#3EACFC"/>
</linearGradient>
<linearGradient id="paint16_linear_138_202" x1="53.0089" y1="178.469" x2="26.7246" y2="225.307" gradientUnits="userSpaceOnUse">
<stop stop-color="#16C062"/>
<stop offset="1" stop-color="#3EACFC"/>
</linearGradient>
<linearGradient id="paint17_linear_138_202" x1="53.0089" y1="178.469" x2="26.7246" y2="225.307" gradientUnits="userSpaceOnUse">
<stop stop-color="#16C062"/>
<stop offset="1" stop-color="#3EACFC"/>
</linearGradient>
<clipPath id="clip0_138_202">
<rect x="167.883" y="111.846" width="115.117" height="115.405" rx="57.5586" fill="white"/>
</clipPath>
<clipPath id="clip1_138_202">
<rect x="91.1379" y="2.06396" width="76.7448" height="76.9364" rx="38.3724" fill="white"/>
</clipPath>
<clipPath id="clip2_138_202">
<rect x="4.55835" y="167.064" width="76.7448" height="76.9364" rx="38.3724" fill="white"/>
</clipPath>
</defs>
</svg>
