<svg width="78" height="77" viewBox="0 0 78 77" fill="none" xmlns="http://www.w3.org/2000/svg">
<rect x="1.0791" y="0.5" width="75.7448" height="75.9364" rx="37.8724" fill="url(#paint0_linear_136_204)"/>
<rect x="1.0791" y="0.5" width="75.7448" height="75.9364" rx="37.8724" stroke="url(#paint1_linear_136_204)"/>
<path d="M49.1232 22.6695L58.9926 44.1765L63.7109 35.46C63.9843 34.9933 64.0152 34.4317 63.7945 33.9402L55.141 14.5501C54.8197 13.8345 53.9641 13.3732 53.158 13.4849L31.272 16.5176C30.1964 16.6588 28.8469 17.304 28.1722 18.1643L22.3243 26.3372L49.1232 22.6695Z" fill="url(#paint2_linear_136_204)"/>
<path d="M46.9454 46.535L42.3757 37.7863L47.8489 28.392L56.9965 47.9695C57.3217 48.6836 56.8225 49.7605 56.1853 50.2455L39.4184 63.0938C38.9808 63.4269 38.406 63.5465 37.8632 63.4173L27.9721 60.7096L46.9454 46.535Z" fill="url(#paint3_linear_136_204)"/>
<path d="M29.1386 37.0488L39.2318 36.1114L44.7051 26.7171L22.5733 29.6313L22.5726 29.6314C21.3629 29.8359 21.3625 29.836 19.7883 30.051L13.9404 38.654L20.2382 38.0088L18.3752 51.8835C18.3093 52.4147 18.5055 52.9449 18.906 53.3183L26.5193 59.9357L29.1386 37.0488Z" fill="url(#paint4_linear_136_204)"/>
<defs>
<linearGradient id="paint0_linear_136_204" x1="0.579102" y1="16.875" x2="79.2354" y2="27.4412" gradientUnits="userSpaceOnUse">
<stop stop-color="#0F1B3B"/>
<stop offset="1" stop-color="#232938"/>
</linearGradient>
<linearGradient id="paint1_linear_136_204" x1="61.4336" y1="0.00128941" x2="20.9368" y2="71.9866" gradientUnits="userSpaceOnUse">
<stop stop-color="#16C062"/>
<stop offset="1" stop-color="#3EACFC"/>
</linearGradient>
<linearGradient id="paint2_linear_136_204" x1="53.5877" y1="13.4691" x2="27.3034" y2="60.3074" gradientUnits="userSpaceOnUse">
<stop stop-color="#16C062"/>
<stop offset="1" stop-color="#3EACFC"/>
</linearGradient>
<linearGradient id="paint3_linear_136_204" x1="53.5877" y1="13.4691" x2="27.3034" y2="60.3074" gradientUnits="userSpaceOnUse">
<stop stop-color="#16C062"/>
<stop offset="1" stop-color="#3EACFC"/>
</linearGradient>
<linearGradient id="paint4_linear_136_204" x1="53.5877" y1="13.4691" x2="27.3034" y2="60.3074" gradientUnits="userSpaceOnUse">
<stop stop-color="#16C062"/>
<stop offset="1" stop-color="#3EACFC"/>
</linearGradient>
</defs>
</svg>
