<svg width="123" height="119" viewBox="0 0 123 119" fill="none" xmlns="http://www.w3.org/2000/svg">
<g clip-path="url(#clip0_656_767)">
</g>
<rect x="7.69122" y="4.3457" width="113.617" height="113.905" rx="56.8086" stroke="url(#paint0_linear_656_767)" stroke-width="1.5"/>
<rect x="0.853638" y="1.25" width="113.617" height="113.905" rx="56.8086" fill="url(#paint1_linear_656_767)"/>
<rect x="0.853638" y="1.25" width="113.617" height="113.905" rx="56.8086" stroke="url(#paint2_linear_656_767)" stroke-width="1.5"/>
<path d="M72.9204 34.504L87.7244 66.7646L94.8018 53.6897C95.2119 52.9897 95.2583 52.1472 94.9272 51.41L81.9471 22.325C81.4651 21.2515 80.1817 20.5596 78.9726 20.7271L46.1436 25.2761C44.5302 25.4879 42.5059 26.4558 41.4938 27.7462L32.7219 40.0055L72.9204 34.504Z" fill="url(#paint3_linear_656_767)"/>
<path d="M69.6537 70.3022L62.7991 57.1792L71.009 43.0878L84.7303 72.4541C85.218 73.5252 84.4693 75.1404 83.5135 75.868L58.3632 95.1405C57.7067 95.6402 56.8446 95.8195 56.0304 95.6257L41.1938 91.5642L69.6537 70.3022Z" fill="url(#paint4_linear_656_767)"/>
<path d="M42.9434 56.073L58.0833 54.6669L66.2931 40.5755L33.0955 44.9467L33.0945 44.9468C31.2798 45.2536 31.2793 45.2537 28.918 45.5763L20.1462 58.4808L29.5928 57.513L26.7984 78.3251C26.6996 79.1218 26.9938 79.9172 27.5946 80.4772L39.0145 90.4033L42.9434 56.073Z" fill="url(#paint5_linear_656_767)"/>
<defs>
<linearGradient id="paint0_linear_656_767" x1="98.2229" y1="3.59764" x2="37.4777" y2="111.576" gradientUnits="userSpaceOnUse">
<stop stop-color="#16C062"/>
<stop offset="1" stop-color="#3EACFC"/>
</linearGradient>
<linearGradient id="paint1_linear_656_767" x1="0.103638" y1="25.8125" x2="118.088" y2="41.6619" gradientUnits="userSpaceOnUse">
<stop stop-color="#0F1B3B"/>
<stop offset="1" stop-color="#232938"/>
</linearGradient>
<linearGradient id="paint2_linear_656_767" x1="91.3853" y1="0.501934" x2="30.6402" y2="108.48" gradientUnits="userSpaceOnUse">
<stop stop-color="#16C062"/>
<stop offset="1" stop-color="#3EACFC"/>
</linearGradient>
<linearGradient id="paint3_linear_656_767" x1="79.6171" y1="20.7034" x2="40.1907" y2="90.9609" gradientUnits="userSpaceOnUse">
<stop stop-color="#16C062"/>
<stop offset="1" stop-color="#3EACFC"/>
</linearGradient>
<linearGradient id="paint4_linear_656_767" x1="79.6171" y1="20.7034" x2="40.1907" y2="90.9609" gradientUnits="userSpaceOnUse">
<stop stop-color="#16C062"/>
<stop offset="1" stop-color="#3EACFC"/>
</linearGradient>
<linearGradient id="paint5_linear_656_767" x1="79.6171" y1="20.7034" x2="40.1907" y2="90.9609" gradientUnits="userSpaceOnUse">
<stop stop-color="#16C062"/>
<stop offset="1" stop-color="#3EACFC"/>
</linearGradient>
<clipPath id="clip0_656_767">
<rect x="6.94122" y="3.5957" width="115.117" height="115.405" rx="57.5586" fill="white"/>
</clipPath>
</defs>
</svg>
