<svg width="88" height="36" viewBox="0 0 88 36" fill="none" xmlns="http://www.w3.org/2000/svg">
<path d="M25.0637 6.6249L32.0944 22.11L35.4556 15.834C35.6504 15.498 35.6724 15.0936 35.5152 14.7398L29.3506 0.778947C29.1217 0.263666 28.5122 -0.0684412 27.938 0.0119799L12.3468 2.19552C11.5805 2.29717 10.6191 2.76173 10.1385 3.38115L5.9725 9.26561L25.0637 6.6249Z" fill="url(#paint0_linear_548_37)"/>
<path d="M23.5122 23.808L20.2568 17.509L24.1559 10.7451L30.6724 24.8409C30.9041 25.3551 30.5485 26.1304 30.0945 26.4796L18.1501 35.7304C17.8383 35.9702 17.4289 36.0563 17.0422 35.9633L9.99597 34.0138L23.5122 23.808Z" fill="url(#paint1_linear_548_37)"/>
<path d="M10.8269 16.978L18.0172 16.3031L21.9162 9.53919L6.1499 11.6374L6.14944 11.6374C5.28762 11.7847 5.28735 11.7848 4.16595 11.9396L0 18.1337L4.48641 17.6692L3.15929 27.659C3.11234 28.0414 3.25209 28.4232 3.53742 28.692L8.96097 33.4566L10.8269 16.978Z" fill="url(#paint2_linear_548_37)"/>
<path d="M70.6943 3.1H57.7424V35.4999H54.1589V3.1H41.207V0H70.6943V3.1Z" fill="url(#paint3_linear_548_37)"/>
<path d="M74.8442 36C72.8988 36 71.1071 35.65 69.4689 34.95C67.8307 34.2167 66.4144 33.2333 65.2199 32C64.0254 30.7333 63.0868 29.2833 62.4042 27.65C61.7558 26.0167 61.4316 24.2667 61.4316 22.4C61.4316 20.5667 61.7558 18.85 62.4042 17.25C63.0868 15.6167 64.0254 14.2 65.2199 13C66.4144 11.7667 67.8137 10.8 69.4177 10.1C71.0559 9.36671 72.8477 9.00005 74.793 9.00005C76.7383 9.00005 78.513 9.36671 80.1171 10.1C81.7553 10.8 83.1546 11.7667 84.3149 13C85.4753 14.2334 86.3797 15.65 87.0282 17.25C87.6766 18.85 88.0009 20.55 88.0009 22.35C88.0009 22.6167 87.9838 22.8834 87.9497 23.15C87.9497 23.4167 87.9326 23.6 87.8985 23.7H65.1175C65.2199 25.1 65.5441 26.4 66.0901 27.6C66.6703 28.7667 67.387 29.7833 68.2403 30.65C69.1276 31.5167 70.1344 32.2 71.2607 32.7C72.421 33.1667 73.6497 33.4 74.9466 33.4C75.8339 33.4 76.7042 33.2833 77.5574 33.05C78.4107 32.8167 79.1956 32.5 79.9123 32.1C80.629 31.7 81.2604 31.2167 81.8065 30.65C82.3867 30.05 82.8303 29.4 83.1375 28.7L86.1579 29.5C85.7484 30.4667 85.1682 31.35 84.4173 32.15C83.6665 32.9167 82.7962 33.6 81.8065 34.2C80.8167 34.7667 79.7246 35.2 78.5301 35.5C77.3356 35.8333 76.107 36 74.8442 36ZM84.6733 21.1C84.5709 19.7 84.2296 18.4334 83.6494 17.3C83.1034 16.1334 82.3867 15.1334 81.4993 14.3C80.6461 13.4667 79.6393 12.8167 78.4789 12.35C77.3185 11.8834 76.0899 11.65 74.793 11.65C73.4961 11.65 72.2675 11.8834 71.1071 12.35C69.9467 12.8167 68.9228 13.4667 68.0355 14.3C67.1823 15.1334 66.4826 16.1334 65.9366 17.3C65.4246 18.4667 65.1175 19.7334 65.0151 21.1H84.6733Z" fill="url(#paint4_linear_548_37)"/>
<path d="M79.7064 7.44159H78.1438V3.35399C78.1438 2.66574 78.0302 2.16816 77.8029 1.86124C77.5756 1.54502 77.2489 1.38691 76.8228 1.38691C76.5955 1.38691 76.3635 1.42877 76.1267 1.51247C75.8994 1.59618 75.6864 1.71708 75.4875 1.87519C75.2886 2.024 75.1087 2.20536 74.9477 2.41928C74.7962 2.62389 74.6778 2.85175 74.5926 3.10287V7.44159H73.03V0.145287H74.4505V1.61013C74.7346 1.1172 75.1466 0.731223 75.6864 0.452205C76.2262 0.163888 76.8228 0.019729 77.4762 0.019729C77.9213 0.019729 78.2859 0.0987838 78.57 0.256893C78.8635 0.415003 79.0908 0.633567 79.2518 0.912584C79.4223 1.1823 79.5406 1.49852 79.6069 1.86124C79.6732 2.21467 79.7064 2.59134 79.7064 2.99126V7.44159Z" fill="url(#paint5_linear_548_37)"/>
<path d="M82.2881 0.145948L84.1064 2.64315L84.2342 2.88032L84.3621 2.64315L86.1803 0.145948H87.7997L85.0865 3.80107L87.8281 7.44225H86.1945L84.3621 4.959L84.2342 4.73578L84.1206 4.959L82.2739 7.44225H80.6404L83.3819 3.80107L80.6688 0.145948H82.2881Z" fill="url(#paint6_linear_548_37)"/>
<defs>
<linearGradient id="paint0_linear_548_37" x1="28.2441" y1="0.000603339" x2="9.21504" y2="33.5515" gradientUnits="userSpaceOnUse">
<stop stop-color="#16C062"/>
<stop offset="1" stop-color="#3EACFC"/>
</linearGradient>
<linearGradient id="paint1_linear_548_37" x1="28.2441" y1="0.000603339" x2="9.21504" y2="33.5515" gradientUnits="userSpaceOnUse">
<stop stop-color="#16C062"/>
<stop offset="1" stop-color="#3EACFC"/>
</linearGradient>
<linearGradient id="paint2_linear_548_37" x1="28.2441" y1="0.000603339" x2="9.21504" y2="33.5515" gradientUnits="userSpaceOnUse">
<stop stop-color="#16C062"/>
<stop offset="1" stop-color="#3EACFC"/>
</linearGradient>
<linearGradient id="paint3_linear_548_37" x1="88.124" y1="-7.75315e-07" x2="42.1406" y2="37.1553" gradientUnits="userSpaceOnUse">
<stop stop-color="#16C062"/>
<stop offset="1" stop-color="#3EACFC"/>
</linearGradient>
<linearGradient id="paint4_linear_548_37" x1="88.124" y1="-7.75315e-07" x2="42.1406" y2="37.1553" gradientUnits="userSpaceOnUse">
<stop stop-color="#16C062"/>
<stop offset="1" stop-color="#3EACFC"/>
</linearGradient>
<linearGradient id="paint5_linear_548_37" x1="88.124" y1="-7.75315e-07" x2="42.1406" y2="37.1553" gradientUnits="userSpaceOnUse">
<stop stop-color="#16C062"/>
<stop offset="1" stop-color="#3EACFC"/>
</linearGradient>
<linearGradient id="paint6_linear_548_37" x1="88.124" y1="-7.75315e-07" x2="42.1406" y2="37.1553" gradientUnits="userSpaceOnUse">
<stop stop-color="#16C062"/>
<stop offset="1" stop-color="#3EACFC"/>
</linearGradient>
</defs>
</svg>
