<svg width="24" height="25" viewBox="0 0 24 25" fill="none" xmlns="http://www.w3.org/2000/svg">
<path d="M4.5 2C2.84531 2 1.5 3.34531 1.5 5V20C1.5 21.6547 2.84531 23 4.5 23H19.5C21.1547 23 22.5 21.6547 22.5 20V5C22.5 3.34531 21.1547 2 19.5 2H4.5ZM18.4266 5.9375L13.5609 11.4969L19.2844 19.0625H14.8031L11.2969 14.4734L7.27969 19.0625H5.05313L10.2563 13.1141L4.76719 5.9375H9.36094L12.5344 10.1328L16.2 5.9375H18.4266ZM16.6547 17.7313L8.69062 7.19844H7.36406L15.4172 17.7313H16.65H16.6547Z" fill="white"/>
</svg>
